<svg width="32" height="32" viewBox="0 0 32 32" fill="none" xmlns="http://www.w3.org/2000/svg">
<path d="M31.0308 7.54268C31.042 7.5839 31.0477 7.6264 31.0478 7.66911V14.3064C31.0478 14.3916 31.0252 14.4753 30.9822 14.549C30.9393 14.6227 30.8776 14.6838 30.8032 14.7262L25.2013 17.9335V24.2908C25.2013 24.4638 25.1089 24.6235 24.958 24.7106L13.2645 31.4047C13.2377 31.4198 13.2085 31.4295 13.1793 31.4398C13.1684 31.4434 13.158 31.4501 13.1465 31.4531C13.0647 31.4745 12.9788 31.4745 12.8971 31.4531C12.8837 31.4495 12.8715 31.4422 12.8588 31.4374C12.832 31.4277 12.804 31.4192 12.7785 31.4047L1.08737 24.7106C1.0131 24.6681 0.951394 24.607 0.908462 24.5333C0.865529 24.4596 0.842893 24.3759 0.842834 24.2908V4.37889C0.842834 4.33534 0.848918 4.29299 0.859867 4.25186C0.863517 4.23795 0.872033 4.22524 0.8769 4.21133C0.886024 4.18592 0.894541 4.15991 0.907923 4.13632C0.917048 4.12059 0.930431 4.10789 0.94138 4.09337C0.955372 4.07401 0.968146 4.05405 0.98457 4.03711C0.998561 4.0232 1.01681 4.01291 1.03263 4.00081C1.05027 3.98629 1.06608 3.97057 1.08616 3.95907H1.08677L6.93261 0.611998C7.00663 0.569641 7.09053 0.547348 7.17593 0.547348C7.26133 0.547348 7.34524 0.569641 7.41926 0.611998L13.2651 3.95907H13.2663C13.2858 3.97117 13.3022 3.98629 13.3198 4.00021C13.3357 4.01231 13.3533 4.0232 13.3673 4.0365C13.3843 4.05405 13.3965 4.07401 13.4111 4.09337C13.4214 4.10789 13.4354 4.12059 13.4439 4.13632C13.4579 4.16051 13.4658 4.18592 13.4756 4.21133C13.4804 4.22524 13.489 4.23795 13.4926 4.25246C13.5038 4.29369 13.5095 4.33619 13.5096 4.37889V16.8156L18.381 14.0263V7.6685C18.381 7.62616 18.3871 7.58321 18.398 7.54268C18.4023 7.52816 18.4102 7.51545 18.415 7.50154C18.4248 7.47613 18.4333 7.45012 18.4467 7.42653C18.4558 7.4108 18.4692 7.3981 18.4795 7.38358C18.4941 7.36422 18.5063 7.34426 18.5233 7.32732C18.5373 7.31341 18.555 7.30312 18.5708 7.29102C18.589 7.27651 18.6048 7.26078 18.6243 7.24929H18.6249L24.4714 3.90221C24.5454 3.85979 24.6293 3.83747 24.7147 3.83747C24.8001 3.83747 24.884 3.85979 24.958 3.90221L30.8039 7.24929C30.8245 7.26138 30.8404 7.27651 30.8586 7.29042C30.8738 7.30252 30.8914 7.31341 30.9054 7.32672C30.9225 7.34426 30.9346 7.36422 30.9492 7.38358C30.9602 7.3981 30.9736 7.4108 30.9821 7.42653C30.9961 7.45012 31.004 7.47613 31.0137 7.50154C31.0192 7.51545 31.0271 7.52816 31.0308 7.54268ZM30.0733 14.0263V8.50693L28.0275 9.67808L25.2013 11.2963V16.8156L30.0739 14.0263H30.0733ZM24.2274 24.0107V18.4877L21.4475 20.0665L13.509 24.572V30.1471L24.2274 24.0107ZM1.81734 5.21672V24.0107L12.5345 30.1465V24.5727L6.93565 21.4216L6.93383 21.4204L6.93139 21.4192C6.91254 21.4083 6.89672 21.3925 6.87908 21.3792C6.86387 21.3671 6.84623 21.3575 6.83285 21.3441L6.83163 21.3423C6.81582 21.3272 6.80487 21.3085 6.79148 21.2915C6.77932 21.2752 6.76472 21.2613 6.75498 21.2443L6.75438 21.2425C6.74343 21.2244 6.73674 21.2026 6.72883 21.182C6.72092 21.1639 6.71058 21.1469 6.70571 21.1276V21.127C6.69963 21.104 6.69841 21.0798 6.69598 21.0562C6.69355 21.038 6.68868 21.0199 6.68868 21.0018V8.00605L3.86309 6.38726L1.81734 5.21733V5.21672ZM7.17654 1.59077L2.30582 4.37889L7.17533 7.16701L12.0454 4.37829L7.17533 1.59077H7.17654ZM9.70954 18.991L12.5351 17.3734V5.21672L10.4894 6.38787L7.66319 8.00605V20.1627L9.70954 18.991ZM24.7147 4.88099L19.8446 7.66911L24.7147 10.4572L29.5842 7.6685L24.7147 4.88099ZM24.2274 11.2963L21.4012 9.67808L19.3555 8.50693V14.0263L22.1811 15.6439L24.2274 16.8156V11.2963ZM13.0212 23.7342L20.1645 19.6788L23.7353 17.6523L18.8688 14.866L13.2657 18.0739L8.15896 20.9975L13.0212 23.7342Z" fill="#FF2D20"/>
</svg>
