<svg width="1534" height="1534" version="1.1" xmlns="http://www.w3.org/2000/svg" desc="Created with imagetracer.js version 1.2.6" ><path fill="rgb(193,246,51)" stroke="rgb(193,246,51)" stroke-width="1" opacity="1" d="M 1045 526 L 1061.5 529 L 1076 539.5 L 1085 554.5 L 1087 564.5 L 1087 846 Q 1062.8 845.6 1053 829.5 L 1047 818.5 L 1045 809.5 L 1045 526 Z " /><path fill="rgb(193,246,51)" stroke="rgb(193,246,51)" stroke-width="1" opacity="1" d="M 1150.5 568 L 1159 568 L 1159 588.5 Q 1155.2 606.2 1142.5 615 L 1128.5 622 L 1117 623 L 1117 607.5 L 1120 593.5 Q 1124.5 582.5 1133.5 576 Q 1140.3 570.3 1150.5 568 Z " /><path fill="rgb(193,246,51)" stroke="rgb(193,246,51)" stroke-width="1" opacity="1" d="M 148.5 646 L 176.5 646 Q 189.7 648.8 197 657.5 L 204 668.5 L 208 681.5 L 248.5 784 L 251 780.5 L 262 751.5 L 221 646 L 249.5 646 L 253.5 647 Q 266.1 651.4 273 661.5 L 278 671.5 L 284 690 Q 286.7 691.1 286 688.5 L 296 663.5 L 305.5 653 Q 311.2 647.7 320.5 646 L 349 646 L 310 746.5 L 309 753.5 L 321.5 785 L 366 669.5 Q 370.5 658.5 379.5 652 L 393.5 646 L 422 646 L 353 825.5 L 344.5 837 Q 335.7 846.7 316.5 846 L 303.5 841 L 293 830.5 L 286 813 Q 283 811.8 284 815.5 L 278 829.5 L 270.5 838 Q 262 847 243.5 846 Q 227.6 842.4 220 830.5 L 155 665.5 L 148.5 646 Z " /><path fill="rgb(193,246,51)" stroke="rgb(193,246,51)" stroke-width="1" opacity="1" d="M 526.5 646 L 553.5 647 L 574.5 653 Q 597.8 663.2 613 681.5 Q 626.6 696.9 633 719.5 L 636 735.5 L 636 757.5 L 634 767 L 488.5 767 L 488 766.5 L 488 759.5 Q 491.4 742.4 503.5 734 L 513.5 728 L 526.5 725 L 590 725 Q 584.8 708.4 571.5 699 L 551.5 689 L 546.5 688 L 525.5 688 Q 502.1 693.1 490 709.5 Q 482.6 718.1 479 730.5 L 478 735.5 L 478 756.5 Q 483.4 781.6 501.5 794 Q 510.8 801.2 524.5 804 Q 530.8 802.2 532.5 805 L 583.5 805 L 587.5 806 Q 602 811 610 822.5 L 616 835.5 L 617 846 L 523.5 846 Q 522 843.5 516.5 845 Q 499.3 841.7 486.5 834 L 464 817 L 454 804.5 L 443 785.5 L 439 773.5 L 436 757.5 L 436 734.5 L 439 718.5 L 446 700.5 Q 456.1 682.1 471.5 669 Q 482.8 659.3 497.5 653 L 513.5 648 L 525.5 647 L 526.5 646 Z " /><path fill="rgb(193,246,51)" stroke="rgb(193,246,51)" stroke-width="1" opacity="1" d="M 720.5 646 L 787.5 646 Q 788.6 646.1 788 651.5 L 783 666.5 L 775 677 L 764.5 684 L 756.5 687 Q 751 685.5 749.5 688 L 722.5 688 Q 714.6 690.1 711 696.5 Q 708 700.5 708 707.5 Q 709.6 718.4 717.5 723 L 722.5 725 L 739.5 726 L 752.5 730 L 769 741 L 779 753.5 L 785 765.5 L 788 778.5 L 788 792.5 Q 783.2 821.2 763.5 835 Q 753.2 843.2 737.5 846 L 667 846 Q 668.3 822 684.5 812 Q 691.4 806.9 701.5 805 L 730.5 805 Q 739.5 802.5 744 795.5 Q 747.3 790.8 746 781.5 L 739.5 771 L 731.5 767 Q 713.7 767.8 702.5 762 Q 688.6 755.9 680 744.5 Q 671.7 734.7 668 720.5 L 667 698.5 Q 672 671.5 690.5 658 L 706.5 649 L 720.5 646 Z " /><path fill="rgb(193,246,51)" stroke="rgb(193,246,51)" stroke-width="1" opacity="1" d="M 909.5 646 L 928.5 646 L 929.5 647 L 940.5 648 L 953.5 652 Q 978.4 662.1 995 680.5 L 1008 699.5 L 1014 715.5 L 1000.5 721 L 987.5 721 L 973.5 716 L 952.5 698 L 939.5 691 L 928.5 688 L 908.5 688 Q 885.6 693.6 873 709.5 L 862 731.5 L 860 749.5 Q 862.8 751.3 861 757.5 L 865 769.5 L 877 788 L 897.5 801 L 912.5 805 L 925.5 805 L 938.5 802 L 948.5 797 L 970.5 778 L 979.5 773 L 997.5 771 L 1014 776 L 1013 781.5 L 1006 796.5 Q 997.2 811.2 984.5 822 Q 968.6 836.1 945.5 843 L 930.5 846 L 906.5 846 Q 864 838.5 842 810.5 Q 828.7 794.8 822 772.5 L 819 757.5 L 819 734.5 Q 826.7 692.7 853.5 670 L 876.5 655 L 889.5 650 L 909.5 646 Z " /><path fill="rgb(193,246,51)" stroke="rgb(193,246,51)" stroke-width="1" opacity="1" d="M 1153.5 646 Q 1158.9 645.4 1159 646.5 L 1159 811.5 L 1154 825.5 L 1147 835 L 1132.5 844 L 1125.5 846 L 1117 846 L 1117 684.5 L 1121 669.5 L 1130.5 657 Q 1138.8 648.3 1153.5 646 Z " /><path fill="rgb(193,246,51)" stroke="rgb(193,246,51)" stroke-width="1" opacity="1" d="M 1281.5 646 L 1299.5 646 L 1300.5 647 L 1311.5 648 L 1324.5 652 Q 1350.3 662.2 1367 681.5 Q 1379.3 695.2 1385 715.5 L 1381.5 718 L 1371.5 721 L 1359.5 721 Q 1348.8 719.2 1341.5 714 L 1326.5 700 L 1310.5 691 L 1299.5 688 L 1279.5 688 Q 1258.3 693.3 1246 707.5 Q 1237.4 717.4 1233 731.5 L 1232 736.5 L 1232 755.5 Q 1237.3 779.3 1253.5 792 Q 1267.7 805.8 1296.5 805 L 1306.5 803 L 1316.5 799 Q 1330.8 790.3 1341.5 778 L 1350.5 773 L 1368.5 771 L 1385 776 Q 1377.3 805.4 1355.5 822 Q 1339.6 836.1 1316.5 843 L 1301.5 846 L 1277.5 846 Q 1235.8 838.7 1214 811.5 Q 1201.1 796.4 1194 775.5 L 1190 756.5 L 1190 736.5 L 1193 720.5 L 1202 698.5 Q 1210.8 682.8 1223.5 671 L 1247.5 655 L 1260.5 650 L 1281.5 646 Z " /><path fill="rgb(0,75,33)" stroke="rgb(0,75,33)" stroke-width="1" opacity="0.996078431372549" d="M 0.5 0 L 1534 0 L 1534 1534 L 0 1533.5 L 1533 1533 L 1533 1 L 0.5 1 L 0.5 0 Z " /><path fill="rgb(0,75,33)" stroke="rgb(0,75,33)" stroke-width="1" opacity="0.996078431372549" d="M 1045 519 Q 1050.3 518.3 1053 521.5 Q 1052.3 523.8 1054.5 523 L 1058 524 L 1057 526.5 L 1063 527 Q 1061.8 530 1065.5 529 L 1069 530 Q 1067.3 525.9 1071.5 527 L 1073 529.5 L 1072 531.5 L 1073 535 Q 1075.7 533.9 1075 536.5 L 1077.5 540 L 1084 540 L 1084 544.5 L 1082 544.5 L 1083 548 L 1088 546 L 1088 550 Q 1084.3 548.5 1085 551.5 L 1086.5 551 L 1089 551.5 L 1088 556.5 L 1089 557.5 L 1089 847.5 L 1087.5 849 L 1077.5 849 L 1067.5 845 L 1063.5 850 L 1062 850 L 1062 846 L 1064 845.5 L 1063.5 844 L 1067 845 Q 1068.1 842.3 1065.5 843 L 1059 838.5 Q 1059.8 836.3 1057.5 837 Q 1056.3 834.7 1055 837.5 L 1058 838 L 1056.5 841 L 1054.5 838 L 1054 840 Q 1051 841.3 1052 837.5 L 1054 833.5 L 1050 831.5 L 1051 829.5 L 1047 827.5 Q 1051 825.5 1047 823.5 L 1046.5 821 L 1046 826 Q 1042.3 827.4 1044 821.5 L 1045 818 Q 1042.3 816.9 1043 819.5 L 1042 822 L 1038.5 823 L 1037 820.5 Q 1038.2 817.3 1042 818 L 1043 811.5 L 1043 526.5 L 1044.5 525 Q 1048.3 526 1047 523 L 1043 522.5 L 1045 519 Z M 1052 524 L 1052 525 L 1055 525 L 1052 524 Z M 1045 526 L 1045 812 L 1052 829 Q 1062 845 1087 846 L 1087 565 L 1083 550 L 1077 541 L 1062 529 L 1051 526 L 1045 526 Z " /><path fill="rgb(0,75,33)" stroke="rgb(0,75,33)" stroke-width="1" opacity="0.996078431372549" d="M 1038.5 525 L 1042 527.5 Q 1043 531.3 1040 530 L 1040 526 L 1038.5 526 L 1038.5 525 Z " /><path fill="rgb(0,75,33)" stroke="rgb(0,75,33)" stroke-width="1" opacity="0.996078431372549" d="M 1153.5 562 Q 1160 561 1162 564.5 L 1161 585 Q 1165.5 583.5 1164 588 L 1161 588 Q 1162.3 593.3 1159 592.5 L 1159 595.5 Q 1161.5 597 1158 598.5 L 1157 602 Q 1153.3 600.8 1155 606 L 1158 607.5 L 1154.5 609 L 1152.5 609 L 1149 610.5 L 1152 612.5 Q 1149 613.8 1150 618 L 1152 618 L 1152 624 L 1140.5 625 L 1139 622 Q 1141.7 623.1 1141 620.5 Q 1139.5 617.5 1138 620.5 Q 1138.8 622.8 1136.5 622 L 1132 625 Q 1133.3 622 1129.5 623 L 1126.5 625 L 1114 625 L 1115 619.5 L 1112.5 621 L 1111 619.5 L 1112 610.5 Q 1109.8 609.3 1111 604.5 L 1114 603 L 1114.5 605 L 1115.5 602 L 1117 602.5 L 1116 597.5 L 1117.5 592 L 1119 592.5 Q 1118.2 587.3 1122 586.5 L 1118 580 L 1124 580 L 1124 574.5 L 1125.5 574 Q 1127 576.5 1128.5 573 Q 1131.1 572.2 1130 575.5 L 1131.5 575 L 1133 574.5 L 1132 572 Q 1137.2 573.7 1136 570 Q 1132.2 571.5 1133 568.5 L 1135.5 567 L 1137 571 L 1140 571 Q 1138.5 567.2 1141.5 568 L 1146 567 Q 1144.2 562.1 1150.5 564 L 1153.5 562 Z M 1157 567 L 1147 569 L 1135 575 Q 1114 588 1117 623 L 1129 622 L 1142 616 Q 1155 607 1159 590 L 1159 568 L 1157 567 Z M 1129 576 L 1125 582 L 1127 581 Q 1126 578 1129 579 L 1129 576 Z M 1122 582 Q 1121 585 1124 584 Q 1125 581 1122 582 Z M 1115 608 L 1113 617 L 1115 618 L 1115 608 Z " /><path fill="rgb(0,75,33)" stroke="rgb(0,75,33)" stroke-width="1" opacity="0.996078431372549" d="M 1120.5 575 L 1122 578 L 1119 576.5 L 1120.5 575 Z " /><path fill="rgb(0,75,33)" stroke="rgb(0,75,33)" stroke-width="1" opacity="0.996078431372549" d="M 1112.5 590 L 1114 590.5 L 1114 597 L 1111 595.5 Q 1110 591 1112.5 590 Z " /><path fill="rgb(0,75,33)" stroke="rgb(0,75,33)" stroke-width="1" opacity="0.996078431372549" d="M 308 636 Q 311 635 310 638 L 314 638 L 314 640.5 L 319 643 Q 317.7 646.3 322.5 645 L 325.5 643 L 341.5 643 L 345.5 644 L 349.5 643 L 349.5 645 L 352 645.5 L 351.5 647 L 353 647.5 L 353 655.5 L 353 657.5 L 354 662 L 349 662 L 349 659.5 L 350 654.5 L 348 655.5 L 347 662.5 L 348 666 L 352 665 L 352 668 L 345.5 668 L 345 669.5 L 343 669.5 L 345 675.5 L 342.5 679 L 337 681 L 337 687.5 L 335.5 688 L 334 689.5 L 334 697 L 337 697 L 337 702 Q 331.4 704.2 333 698.5 L 333.5 697 L 331.5 696 L 331 697.5 L 332 699.5 L 329 704 Q 332 702.8 331 706.5 L 330 707.5 L 330 724 Q 327 725.3 328 721.5 L 329 719.5 L 325 718 L 323 721.5 L 323 724.5 L 324 728 L 319 729 L 318 733.5 L 319 735.5 Q 316.3 736.6 317 740 L 320 740 L 320 746 L 317 746 Q 318.1 748.7 315.5 748 L 314 748.5 L 315 744 L 317 743.5 Q 315.8 740.7 314.5 743 Q 311.8 742.4 313 748.5 Q 310.4 749.9 311 754.5 L 313 754.5 L 313.5 761 L 314 759 L 317 760.5 L 317.5 762 L 318 758 Q 320.7 756.9 320 759.5 L 323 769.5 L 321.5 774 L 318.5 770 L 318 772.5 L 319 775 Q 323.1 773.3 322 777.5 L 323 777.5 L 325 767.5 L 324.5 766 L 326.5 767 Q 326 760 329 756.5 L 327 752.5 L 328 750.5 L 327 746.5 Q 328.8 743.3 330.5 747 L 332 747 L 332 743 L 333.5 743 Q 334.7 745.3 336 742.5 L 335 737 L 337.5 736 L 339 736.5 L 338 731.5 L 339 727 L 343 727 L 343 720.5 L 345 717.5 L 343 714.5 Q 347 712.5 343 710.5 Q 342.3 706.8 344.5 706 Q 348.7 704.7 347 709.5 L 346.5 711 L 349 711 Q 347.5 704.7 351 705.5 L 351 701.5 L 355 694.5 Q 349.5 692 354 689.5 Q 355.5 685.1 352.5 686 Q 351.1 689.3 346 688 L 346 682 L 358.5 682 L 359 679.5 Q 361.8 678.8 361 674.5 L 360 672.5 L 364 670.5 L 363 668 L 360 666.5 Q 357.7 659.3 365.5 662 L 365 663.5 L 366.5 666 Q 365.9 661.4 368.5 660 L 371 658.5 L 368 656.5 L 371.5 655 L 373 655.5 Q 373.8 653.3 371.5 654 L 371.5 653 Q 373.8 653.8 373 651.5 L 374 651.5 Q 373.3 653.8 375.5 653 L 375 651.5 L 374 648 L 378 649.5 L 378.5 651 L 381 649.5 L 380.5 648 L 382.5 649 L 386 646.5 L 382 646 Q 380.6 642 387.5 644 L 389.5 644 L 394.5 645 L 402.5 640 Q 412.8 641.2 418 639 L 418 643 L 419.5 643 L 421.5 645 L 424.5 644 L 428 644.5 L 428 656 Q 422.6 654.5 421 657.5 Q 419.9 661.7 424 660 L 424 666 L 417 666 Q 418.5 669.8 415.5 669 L 415.5 670 Q 418.1 669.3 417 672 L 413 673.5 Q 412.2 676.1 415.5 675 L 417 678.5 L 413 680 Q 411.8 683.7 417 682 L 417 685 L 413 686.5 L 411.5 690 Q 408.8 690.6 410 684.5 L 409 684.5 L 409 692.5 L 407.5 694 Q 405.3 693.3 406 695.5 L 403 703 Q 406 704.3 405 700.5 Q 407 696 409 699.5 L 410 706 L 408 706 L 408 712 Q 410.7 713.1 410 710.5 L 412.5 712 L 415.5 712 Q 414.7 715.2 420 714 L 420 720 L 412 720 Q 413.7 725.2 410 724 Q 411.3 718.7 408 719.5 L 408 712 L 406 712 Q 407.7 706.8 404 708 Q 406.3 714 399.5 712 Q 396.3 714.3 397 720.5 L 398 725 L 401 726.5 Q 401.8 730.3 399.5 731 Q 395.4 728.3 396 723 L 393 724.5 L 394.5 728 Q 397.1 727.3 396 730 L 392 731.5 Q 393.1 734.8 390.5 734 Q 387.8 735.4 389 740 L 387 740.5 L 388 744.5 L 388 746.5 L 388 752 L 383 752 L 383 753.5 L 385 758.5 L 384 760.5 L 385 766 L 377 765 Q 378.2 771 375 773.5 Q 377.3 774.8 374.5 776 L 373 775.5 L 376 781.5 L 374 790 Q 371 789 372 792 L 380 792 L 380 800 L 372 800 Q 373.9 805.6 369 804 L 368 798.5 L 369 796 Q 365.3 794.5 366 797.5 Q 368.8 799.2 364.5 801 L 363 801.5 L 364 804.5 L 360.5 813 L 359 812.5 L 360 814.5 L 359 818 Q 362.1 818.8 361.5 816 L 368 816 L 368 828 L 364 828 Q 365.9 833.6 361 832 L 362 829.5 L 359.5 828 L 356 830.5 Q 358.2 837.8 353 836 Q 354.2 832.3 349 834 L 351 837.5 L 350 842 Q 346.3 843.5 347 840.5 L 348 838.5 L 346 838.5 L 346.5 837 L 343.5 839 L 344 840.5 L 343 846 L 346 847.5 Q 347.2 852.1 342 850 L 343 846 L 333 845 Q 334.1 847.7 331.5 847 L 329.5 848 L 326.5 847 L 325 847 L 324.5 849 L 314.5 849 L 303 843 L 303 846 Q 307.1 844.7 306 848 L 302 850 L 301.5 848 L 292 848 L 292 839.5 L 291 837 Q 288.3 835.1 281.5 836 L 278.5 844 L 278 840.5 L 279 836.5 L 277.5 833 L 276 838 Q 272.7 836.9 274 841 L 276 841.5 L 276 848 Q 272.7 849.1 274 845 L 271.5 845 L 266.5 846 L 261.5 849 L 255 849 L 254.5 847 Q 252.2 850.2 245.5 849 L 243.5 847 Q 238.9 847.6 237.5 845 L 232.5 845 L 230.5 843 L 226.5 844 L 222 842.5 L 224 837.5 L 223 835 Q 220.3 836.1 221 833.5 L 220 833.5 Q 221.5 837.9 218.5 837 L 217 834 Q 220 835.3 219 831.5 L 217.5 832 Q 215.3 832.8 216 830.5 L 217 827 Q 213.7 828.3 215 823.5 L 214 823.5 L 213.5 826 L 212 823.5 L 213 820.5 L 212 818.5 L 212.5 817 L 210 815.5 L 211 812.5 L 207 810 L 207.5 808 L 209 808.5 L 209 806 L 207 805.5 L 207 801 Q 204.3 802.1 205 799.5 Q 202.5 801.3 200 796.5 Q 199.2 793.5 203 795 L 203 791.5 L 198.5 785 L 196 786 Q 197 783 194 784 Q 195.1 786.7 192.5 786 L 190 782 L 194 780.5 L 195 773.5 L 193 771.5 L 191 764 Q 186.1 765.8 188 759.5 L 189 755.5 L 184.5 749 L 183 749 L 183 741.5 L 181.5 741 L 180 738.5 L 181 736.5 L 180.5 734 Q 175.9 732.6 178 738.5 L 179 740.5 Q 177.8 743 174 742 Q 175.9 739.3 175 732.5 L 176.5 731 L 179 729.5 L 175 726.5 L 175 724.5 Q 176.5 717.5 173.5 718 Q 170.3 719.8 174 721.5 Q 175 725.3 172 724 Q 173.2 720.3 168 722 L 168 716.5 L 169 714.5 L 168 711 Q 171.3 712.3 170 707.5 L 168 704.5 L 168.5 703 Q 166.3 703.8 167 701.5 L 164.5 697 Q 163.3 699.3 162 696.5 L 163 689.5 L 159 688 Q 158 685 161 686 L 161 683 Q 157 684.4 159 677.5 Q 156.3 676.3 156.5 672 L 154 673.5 L 155 678 L 151 676.5 Q 150.4 671.9 153 670.5 L 152 667.5 L 153 663 L 151 663 L 151 657 L 148 657 Q 150.4 664.1 144 662 Q 142.3 658.6 143 651.5 L 147 650 Q 145.3 642 149.5 639 L 151.5 640 L 154.5 639 L 162 640.5 L 154 642.5 Q 157.5 645.1 164.5 644 L 170 641.5 L 170.5 640 L 177 640 L 176 643.5 L 182 644 L 183.5 647 Q 186.5 647.7 185 644 L 188 644 L 188 648 L 189.5 648 L 193.5 649 Q 194.8 646.8 196 649.5 L 201.5 660 L 205 660.5 L 203 661 L 205.5 667 L 208 665.5 L 209 671.5 L 208 673.5 L 209 679 Q 211.8 680.9 218 680 L 218 664.5 L 220 664 Q 218.8 667 222.5 666 L 227 667 Q 228.5 663.2 225.5 664 L 223 663.5 L 224 660.5 L 223 654 Q 220.3 652.9 221 655.5 L 220 658 L 216 658 L 216 652 L 219 652 L 219 645.5 L 221 644.5 L 221 647.5 Q 225.5 654 227 663.5 L 262 751.5 L 253 772.5 L 251 780.5 L 248.5 784 L 239 759.5 L 239.5 758 L 237 756.5 L 235 748.5 Q 229.3 739.7 227 727.5 L 225 725.5 L 225 722.5 L 215 699.5 L 204 668.5 L 194.5 655 Q 187.7 648.2 176.5 646 L 148 646 L 217 825.5 Q 221.9 835.1 230.5 841 L 243.5 846 L 253.5 846 L 263.5 843 L 275 833.5 Q 281.9 825.1 284 813 Q 287 811.8 286 815.5 L 291 827.5 L 298 837 L 312.5 845 L 326.5 846 Q 340.2 843.7 347 834.5 L 353 825.5 L 363 800.5 L 422 646 L 393.5 646 L 389.5 647 Q 376.9 651.4 370 661.5 L 365 671.5 L 363 679.5 L 321.5 785 L 309 753.5 L 309 749.5 Q 315.4 737.9 319 723.5 L 321 721.5 L 321 718.5 L 349 646 L 320.5 646 L 316.5 647 Q 304.4 650.9 298 660.5 Q 292.3 668.6 290 679 L 288 679.5 L 289 681.5 L 286 690 Q 283 691.3 284 687.5 L 276 666.5 L 269 656 L 266 654.5 Q 265.3 652.3 267.5 653 L 270 654 L 271.5 651 L 273 654 L 270 654.5 Q 271.3 657.3 272.5 655 L 276 654 Q 275 657 278 656 Q 276.8 652.3 282 654 L 280.5 658 L 278 659.5 L 277 666.5 L 280 667.5 L 279 671.5 L 281.5 672 L 287 672 L 287 678.5 L 289 677.5 L 288 674.5 L 292 666.5 L 291 664 L 295 663 L 296.5 659 Q 298.8 659.8 298 657.5 L 301.5 652 L 307 651 L 309 647 L 304 647.5 Q 306.3 648.8 303.5 650 L 300 648.5 L 300 640 L 308 640 L 308 636 Z M 404 642 L 404 643 L 416 643 L 404 642 Z M 315 644 L 315 645 L 317 645 L 315 644 Z M 422 651 L 422 654 Q 424 657 425 654 Q 426 649 422 651 Z M 417 662 L 418 665 L 420 664 L 417 662 Z M 227 671 L 223 674 L 220 674 L 223 681 L 226 682 L 227 678 L 228 675 L 227 671 Z M 283 676 Q 280 678 283 679 L 283 677 L 285 677 L 283 676 Z M 231 677 L 229 681 L 233 681 L 231 677 Z M 285 678 L 283 680 L 286 685 Q 288 684 287 680 L 285 678 Z M 232 682 L 231 685 L 233 686 L 232 682 Z M 212 683 Q 210 686 213 685 L 215 691 Q 218 690 217 686 L 212 683 Z M 231 688 Q 230 691 233 690 Q 235 691 234 695 L 237 694 L 236 690 Q 235 687 231 688 Z M 220 694 Q 221 697 217 696 L 220 705 L 220 706 Q 223 707 222 704 L 225 706 Q 226 709 224 708 L 221 711 Q 225 713 224 715 L 225 716 L 225 722 L 228 723 Q 230 722 228 721 Q 229 718 226 719 L 226 716 Q 229 715 228 718 L 232 718 L 232 723 L 229 724 L 228 727 L 231 728 L 230 731 Q 234 732 233 739 L 238 742 L 237 751 L 241 752 L 241 745 L 242 744 L 242 742 L 240 742 L 240 736 Q 247 734 249 738 L 251 737 L 248 732 Q 247 728 251 730 L 251 727 L 248 726 L 249 723 L 248 723 L 247 722 L 245 722 Q 244 717 247 718 L 245 713 L 244 717 Q 241 718 242 714 L 240 714 Q 238 709 242 710 L 242 706 Q 238 704 239 700 L 226 700 L 224 702 Q 220 703 222 699 L 225 698 L 239 698 L 239 697 L 238 697 L 232 694 Q 229 693 230 696 Q 227 697 226 694 L 224 695 L 220 694 Z M 327 711 Q 324 712 325 716 L 328 714 Q 329 710 327 711 Z M 248 740 Q 250 746 244 744 L 244 758 L 243 759 Q 244 761 241 760 L 243 765 L 243 768 L 247 768 L 247 770 Q 249 773 250 770 Q 251 765 249 766 Q 247 769 245 765 Q 248 761 255 762 L 256 759 L 256 749 L 255 748 L 257 747 Q 258 744 255 743 L 255 740 L 248 740 Z M 380 761 L 381 765 L 382 762 L 380 761 Z M 317 762 L 315 764 L 317 768 L 318 768 L 317 762 Z M 248 774 L 249 777 L 250 775 L 248 774 Z M 369 785 L 369 787 L 372 786 L 369 785 Z M 358 819 L 356 827 L 361 826 Q 362 822 360 823 L 358 819 Z M 287 821 L 285 823 L 286 828 Q 282 827 281 831 L 282 832 L 287 832 L 287 834 L 291 835 L 292 833 Q 288 831 291 830 L 289 829 L 287 828 L 287 821 Z M 281 825 L 281 827 L 283 826 L 281 825 Z M 353 828 L 353 830 Q 349 831 353 833 L 355 832 Q 356 827 353 828 Z M 293 836 L 294 841 L 299 840 Q 298 837 297 839 L 296 838 L 293 836 Z M 226 841 Q 225 844 228 843 Q 229 840 226 841 Z M 269 841 L 269 843 L 271 842 L 269 841 Z M 268 842 Q 266 845 269 844 L 268 842 Z " /><path fill="rgb(0,75,33)" stroke="rgb(0,75,33)" stroke-width="1" opacity="0.996078431372549" d="M 216.5 638 L 217 640.5 L 216 640.5 L 216.5 638 Z " /><path fill="rgb(0,75,33)" stroke="rgb(0,75,33)" stroke-width="1" opacity="0.996078431372549" d="M 350 638 Q 353.7 636.8 352 642 Q 348.3 643.2 350 638 Z " /><path fill="rgb(0,75,33)" stroke="rgb(0,75,33)" stroke-width="1" opacity="0.996078431372549" d="M 514 638 L 519.5 639 L 523.5 642 Q 525 637.5 532.5 639 L 540 640.5 L 538.5 642 L 528 644.5 L 545.5 645 L 542.5 640 Q 548.3 638.8 549.5 642 Q 550.2 638.2 555.5 639 Q 558.5 640.5 555.5 642 Q 550.3 640.5 552 645 L 557 644 L 558.5 647 L 564.5 647 Q 563.5 650 568.5 649 L 570.5 650 L 576 649 L 577 653 L 580 652.5 L 578 651.5 L 583.5 648 L 586 648 L 585 656.5 L 586.5 656 L 588 656.5 L 587.5 658 L 592.5 661 L 595 659.5 L 593 662.5 L 591.5 662 Q 577.5 652.5 558.5 648 L 547.5 647 L 546.5 646 L 526.5 646 L 505.5 650 L 492.5 655 Q 472.7 665.2 459 681.5 Q 447.6 694.1 441 711.5 L 436 734.5 L 436 757.5 Q 438.7 759.2 437 765.5 L 443 785.5 L 449 797.5 L 464 817 Q 466.7 815.9 466 818.5 Q 477.1 829.4 491.5 837 L 515.5 845 L 533.5 847 L 534.5 846 L 614.5 846 L 617 847 L 617 839.5 L 618.5 839 L 620.5 839 Q 623.5 838.2 622 842 Q 617.5 840.5 619 845 L 622 846.5 L 621.5 849 L 528 849 Q 529.3 846 525.5 847 L 519 848 L 518.5 846 L 515.5 848 L 515 846 Q 511.7 844.9 513 849 L 510.5 849 L 509 846 L 513 845.5 L 506 845 Q 507.3 842 503.5 843 L 500 844 L 498.5 841 L 498 843 L 494 842.5 L 496 841.5 L 495.5 839 L 485.5 841 L 483 837.5 Q 487.3 835.3 482.5 833 L 478.5 835 L 479 833.5 L 480 831.5 L 478 831 Q 479.1 833.7 476.5 833 L 475 830.5 L 475.5 829 L 472 827.5 L 470.5 825 L 468 823.5 L 464.5 819 L 463 819.5 Q 464.3 815.8 460.5 817 Q 462.1 815.3 459 813.5 Q 459.8 811.3 457.5 812 L 453.5 807 L 453 809 L 450 809 Q 451.3 813.1 448 812 L 448 808 Q 445 809 446 806 Q 449 807.3 448 803.5 L 449 803.5 Q 447.7 807.7 452.5 806 L 450 802.5 L 448.5 799 L 445 801 L 445 798 Q 448 799.3 447 795.5 L 445.5 796 Q 442.5 796.9 444 792.5 L 441.5 786 Q 440.3 788.3 439 785.5 L 439 775.5 L 436 775 L 436 773.5 L 437 768.5 L 435 767.5 Q 435.6 774.1 431.5 776 Q 429.3 776.8 430 774.5 L 431 773.5 L 431 764.5 L 432.5 763 L 435 762.5 L 435 748.5 L 434 743.5 L 435 738 Q 430.9 739.7 432 735.5 L 435 731.5 Q 434.3 724.6 437 722 Q 433.2 723.5 434 720.5 L 435 716.5 L 434 711.5 Q 435.5 708.5 437 711.5 L 438.5 715 L 441 705.5 Q 438 704.5 439 699.5 L 443 698 L 442 704.5 L 443 704.5 L 446 697.5 L 444 697.5 L 447 696 Q 445.5 692.2 448.5 693 L 447 690.5 L 448 688.5 L 446 685.5 L 448.5 685 L 450 689 Q 453 690.3 452 686.5 L 452.5 684 L 456 682.5 L 453 680.5 L 453.5 678 L 456 679 L 456.5 682 L 457 680 L 460 678.5 L 456 670.5 Q 458.8 669.4 458 666 L 460 666 L 460 675.5 L 461.5 676 L 464 675 L 464 673 Q 466.7 674.1 466 671.5 L 467.5 669 L 462 670 L 463.5 667 L 470 664.5 Q 469.1 661.5 473.5 663 L 475 663.5 Q 474.3 661.3 476.5 662 L 476 660.5 L 476.5 659 L 477.5 661 L 480 659.5 L 478 656.5 L 481.5 655 L 483.5 656 L 484.5 655 L 491 655 L 490.5 653 L 486 654 L 487.5 651 L 494 650 L 495.5 647 L 501.5 647 L 508 649 Q 506.6 645 513.5 647 L 515 644 L 520 645 Q 521.8 640.1 515.5 642 L 514 638 Z M 522 644 L 522 645 L 524 645 L 522 644 Z M 499 650 L 499 651 L 501 651 L 499 650 Z M 448 689 L 448 691 L 450 692 Q 451 688 448 689 Z " /><path fill="rgb(0,75,33)" stroke="rgb(0,75,33)" stroke-width="1" opacity="0.996078431372549" d="M 790.5 638 Q 795.3 636.3 794 640.5 L 792.5 642 L 785 642 Q 783.2 637.1 789.5 639 L 790.5 638 Z " /><path fill="rgb(0,75,33)" stroke="rgb(0,75,33)" stroke-width="1" opacity="0.996078431372549" d="M 898 638 L 904 639 Q 905.8 643.9 899.5 642 L 898 638 Z " /><path fill="rgb(0,75,33)" stroke="rgb(0,75,33)" stroke-width="1" opacity="0.996078431372549" d="M 1144 638 Q 1146.7 636.9 1146 639.5 L 1153.5 644 L 1158 644 L 1156 640.5 L 1160 640 Q 1158.9 642.7 1161.5 642 L 1160.5 644 L 1159 644.5 L 1161 645 L 1161 814.5 Q 1157.8 813.5 1159 819.5 L 1158 823 L 1161 824.5 L 1159.5 827 Q 1157.3 826.3 1158 828.5 Q 1155.3 829.6 1156 833 L 1151.5 832 L 1150 834.5 L 1153 836 L 1151.5 839 L 1149.5 840 L 1147.5 836 Q 1145 837.2 1146 841 Q 1149.3 839.9 1148 844 Q 1144.3 842.5 1145 845.5 L 1146 850 L 1142 849 L 1140.5 846 L 1136 846 L 1135.5 849 L 1130.5 849 Q 1129 845.5 1122.5 847 Q 1120.5 851 1112.5 849 Q 1109.5 847.5 1112.5 846 L 1115 844.5 L 1114.5 842 L 1114 844 L 1111 842.5 Q 1110.3 838.8 1112.5 838 L 1114.5 839 L 1115 684.5 L 1114 684.5 L 1112.5 690 L 1112 684.5 L 1113 682.5 L 1112 676 Q 1116.5 677.8 1115 672.5 L 1116 670 Q 1119 668.8 1118 672.5 L 1119 672.5 Q 1118.3 663.9 1120 659 L 1125 661 L 1126 658.5 L 1124 658 Q 1123 655 1126 656 L 1126.5 658 L 1138 649.5 L 1137.5 648 L 1145 646.5 L 1142 646 L 1143 642.5 L 1142 640 Q 1145 641 1144 638 Z M 1153 646 Q 1140 649 1132 656 L 1122 668 L 1119 675 L 1117 685 L 1117 847 L 1133 844 Q 1141 841 1147 835 Q 1146 832 1149 833 L 1157 820 L 1159 813 L 1159 647 Q 1159 645 1153 646 Z " /><path fill="rgb(0,75,33)" stroke="rgb(0,75,33)" stroke-width="1" opacity="0.996078431372549" d="M 321 639 L 326 640.5 Q 324.8 643 321 642 L 321 639 Z " /><path fill="rgb(0,75,33)" stroke="rgb(0,75,33)" stroke-width="1" opacity="0.996078431372549" d="M 911.5 639 L 924 640.5 L 914.5 644 L 910 640.5 L 911.5 639 Z " /><path fill="rgb(0,75,33)" stroke="rgb(0,75,33)" stroke-width="1" opacity="0.996078431372549" d="M 1291.5 639 Q 1298.3 637.3 1300 640.5 L 1293.5 644 L 1282 644.5 L 1305.5 645 Q 1308.5 643.5 1305.5 642 Q 1302.9 642.7 1304 640 L 1314 642.5 L 1313.5 644 Q 1317.3 642.8 1316 646.5 Q 1318.3 651.3 1320.5 647 Q 1323.5 646.2 1322 650 L 1325.5 650 Q 1326.7 646.3 1331 647 L 1333 650.5 L 1329 651 Q 1327.7 654.3 1332.5 653 L 1334.5 654 L 1337.5 653 L 1337.5 655 L 1341.5 657 L 1346.5 654 L 1347 658 Q 1342.9 656.7 1344 660 L 1350 663 L 1351.5 660 L 1354 661.5 Q 1348.3 664.3 1353.5 667 L 1356.5 669 L 1359 667.5 L 1361 673 L 1363 673.5 L 1362.5 675 L 1365.5 673 Q 1368.8 674.2 1368 678 L 1366 678.5 L 1373 681.5 L 1373.5 683 L 1374 678 L 1377 679.5 L 1377 687.5 L 1374.5 688 L 1375.5 690 L 1377 690 L 1377 695 L 1381.5 695 L 1384 694 Q 1385 699.1 1381 700.5 L 1383 701 L 1383.5 705 L 1385 704.5 L 1385 710.5 L 1387 711 L 1387 712.5 L 1389.5 711 L 1393 712.5 Q 1394.3 716.7 1389.5 715 L 1390 716.5 Q 1389.3 719.1 1392 718 L 1392 720 Q 1386.4 722.2 1388 716.5 L 1386.5 717 L 1384 718.5 L 1386 719.5 Q 1381.7 722.4 1374 721 Q 1375.3 724.3 1370.5 723 L 1362.5 725 Q 1361 722.5 1355.5 724 L 1354 722.5 Q 1354.5 719.5 1347.5 721 L 1345.5 721 L 1340 720 L 1341 716.5 L 1335.5 712 L 1334 712.5 L 1335 710.5 L 1333 710.5 L 1333.5 709 L 1331 710.5 L 1332 713.5 L 1330.5 714 L 1327 711.5 L 1326 708.5 L 1327.5 709 L 1331 707.5 L 1327 702 Q 1324.3 700.9 1325 703.5 L 1321.5 705 L 1319 703.5 L 1319 700 L 1312.5 700 L 1312 697 L 1308.5 697 L 1305 695.5 L 1306 693.5 L 1301.5 691 L 1300 691.5 Q 1300.8 688.9 1297.5 690 L 1295.5 689 L 1296 690.5 L 1295.5 692 L 1281.5 692 L 1276.5 691 L 1278.5 694 L 1288 695 L 1288 698 L 1280.5 698 Q 1277.5 694.1 1271 695 Q 1272.1 691.7 1268 693 Q 1269.5 696.8 1266.5 696 Q 1265 693.5 1263.5 697 L 1260 698.5 Q 1260.8 700.8 1258.5 700 L 1257 699.5 Q 1257.8 701.8 1255.5 701 L 1255.5 702 Q 1259.3 701 1258 704 L 1255.5 703 L 1253 703.5 L 1253 705 L 1251 705 Q 1252.1 707.7 1249.5 707 L 1249.5 708 Q 1252.8 709.1 1252 706.5 L 1253.5 707 Q 1258.9 708.9 1258 705.5 L 1260 702.5 L 1259.5 701 L 1266 702 L 1266 706 Q 1263 705 1264 708 L 1260 708 L 1260 712 Q 1257 711 1258 714 L 1252 714 L 1252 720 Q 1248.3 718.5 1249 721.5 L 1248 722.5 L 1247.5 732 L 1247 722.5 L 1245 715.5 L 1246.5 716 Q 1249.1 716.7 1248 714 Q 1245 715 1246 712 L 1250 713 Q 1251.9 707.4 1247 709 L 1247 711 L 1245 711 Q 1246.1 713.7 1243.5 713 Q 1245.2 715.2 1241 717.5 Q 1239.5 721.9 1242.5 721 L 1244 723.5 L 1243 724.5 L 1243 736 L 1238 736 L 1238 733.5 L 1235 732 Q 1236 736.3 1233 737.5 L 1236 739.5 L 1236 744 L 1243.5 744 Q 1242.7 747.3 1248 746 L 1248 756 L 1241.5 756 L 1241 754.5 L 1242 752 L 1239.5 753 L 1237.5 750 Q 1234.8 751.3 1237 752.5 L 1238 761.5 L 1240 763.5 L 1240 768.5 L 1239 772 Q 1242.3 770.9 1241 775 L 1246.5 775 L 1249 782 L 1247 782.5 Q 1249.8 783.6 1249 787 L 1255.5 790 Q 1257 786.5 1258.5 789 Q 1260.8 788.3 1260 790.5 L 1261.5 795 L 1264 794 Q 1262.5 789.5 1267 791 L 1267 794 Q 1263.3 792.5 1264 795.5 Q 1265.3 798.3 1266.5 796 L 1268 796.5 Q 1265.8 797.8 1268.5 799 L 1273.5 797 L 1273.5 799 L 1275 799.5 L 1274.5 801 L 1280 800.5 L 1279.5 799 Q 1284.9 798.1 1287 800.5 L 1284 802.5 L 1297 803 L 1298.5 799 L 1306.5 801 L 1308.5 799 Q 1314.7 799.7 1317 796.5 L 1314 794.5 L 1316.5 793 L 1318.5 794 L 1320.5 791 L 1321 793 Q 1323.7 794.1 1323 791.5 L 1324.5 789 Q 1321.9 789.7 1323 787 Q 1325.7 785.9 1325 788.5 L 1327.5 787 L 1329 786.5 Q 1326.3 784.8 1330.5 783 L 1334 782.5 L 1332 781.5 L 1334 780.5 L 1334.5 782 Q 1337.3 780.8 1335 779.5 Q 1334.3 775.8 1336.5 775 L 1342.5 775 L 1343 773 L 1344.5 773 L 1348 771.5 L 1346 771 L 1345 768.5 L 1348.5 767 L 1351.5 771 L 1361.5 768 Q 1362.8 770.2 1367.5 769 L 1370 768 Q 1368.9 770.7 1371.5 770 L 1372.5 771 L 1380.5 771 Q 1383 769.8 1382 766 Q 1388.4 763.7 1386 771.5 L 1385 774.5 L 1387 779.5 L 1385 781.5 Q 1385.7 787.2 1383 789.5 L 1385 793.5 L 1382.5 797 Q 1380.3 797.8 1381 795.5 L 1382 791.5 L 1381 791.5 L 1380 797 L 1377 798.5 Q 1379 803 1381 799.5 L 1381.5 798 L 1384 803.5 L 1384 808 Q 1386.7 809.1 1386 806.5 L 1388.5 808 L 1391.5 808 Q 1390.7 811.3 1396 810 L 1396 816 L 1388 816 Q 1389.7 821.2 1386 820 Q 1387.3 814.7 1384 815.5 L 1384 808 L 1382 808 Q 1383.7 802.8 1380 804 Q 1382.1 809.2 1377.5 808 L 1376 808.5 L 1377 804.5 L 1374.5 804 L 1373 806.5 L 1374 808.5 L 1372.5 808 L 1371 808.5 L 1373 813 L 1369 815.5 L 1367.5 819 L 1366 816 L 1364 816 Q 1365.5 819.7 1362.5 819 L 1358 821.5 L 1363 823.5 L 1360 825 L 1360 832 L 1353 832 L 1351.5 827 L 1348.5 831 L 1343 833.5 L 1345 834 L 1343.5 838 L 1342 838 L 1342 834 L 1340.5 834 L 1337 836.5 L 1336 841 L 1342 840 Q 1341.3 843.1 1344 842.5 L 1344 848 L 1327.5 848 L 1323 849 Q 1324.5 845.2 1321.5 846 L 1318.5 845 L 1315.5 850 L 1302.5 847 L 1300.5 847 Q 1294.5 845.8 1295.5 849 L 1281.5 849 L 1279.5 848 Q 1278 850.5 1272.5 849 L 1268 848 Q 1269.3 844.7 1264.5 846 L 1261 845 Q 1262.3 841.3 1256.5 843 L 1254.5 844 L 1254.5 843 L 1256 842.5 L 1249 840.5 L 1249.5 839 L 1245.5 840 L 1246 838.5 Q 1246.8 836.3 1244.5 837 L 1238 842 L 1239 833 Q 1234.4 834.3 1233 831.5 L 1232.5 830 L 1232 833 L 1223.5 833 L 1222 831.5 L 1222 830 L 1227 830 L 1227 828.5 L 1222.5 825 L 1222 828 Q 1218.3 829.2 1220 824 Q 1223.8 825.5 1223 822.5 L 1220 821.5 Q 1220.8 819.3 1218.5 820 L 1216 821.5 L 1218 818.5 L 1214.5 814 L 1212 815.5 Q 1211.3 813.3 1213.5 814 L 1213.5 813 L 1210.5 811 L 1209 813.5 Q 1212.8 815.3 1209.5 817 Q 1205.8 817.8 1205 815.5 L 1206.5 813 L 1208 812.5 L 1206.5 809 L 1204 810 L 1204 803.5 L 1205 802.5 L 1202 800.5 L 1203 802.5 L 1200.5 803 L 1199 801.5 L 1198.5 790 L 1198 793 L 1194.5 794 L 1195 792.5 L 1196.5 790 Q 1198.8 790.8 1198 788.5 L 1195 784.5 L 1195 781.5 L 1193 778 L 1191 777.5 L 1193 777 L 1191 773.5 L 1191 767.5 L 1188.5 765 L 1188 770 Q 1184.7 771.3 1186 766.5 Q 1182 765.5 1183 759.5 L 1184 757.5 L 1183 752.5 L 1186 751 L 1187.5 754 Q 1190.8 752.3 1187 750.5 L 1186 744.5 L 1188 745.5 L 1188.5 748 L 1189 736.5 L 1188 733.5 L 1189 730.5 L 1188 728.5 L 1190 725.5 L 1187 725 L 1187.5 723 L 1190 723.5 L 1190.5 725 L 1191 711.5 L 1192.5 710 L 1195 708.5 L 1197 702.5 L 1196 700 L 1198.5 701 Q 1198.3 696.3 1201.5 695 Q 1204.1 695.8 1203 692.5 L 1200 693.5 L 1201.5 690 L 1204.5 691 L 1204.5 689 L 1206.5 690 L 1207 687.5 Q 1205.5 683.1 1208.5 684 L 1211 683 L 1212 678.5 L 1219.5 671 L 1222 670.5 L 1220.5 668 L 1223 669.5 Q 1221.8 664.3 1224.5 663 Q 1231.5 664.5 1231 661.5 L 1232.5 659 L 1233 661 L 1238 657.5 L 1236 656.5 L 1238 655.5 L 1238.5 657 L 1244.5 654 L 1247 655 L 1246 652.5 L 1248.5 652 L 1250 652.5 L 1249 648.5 L 1250.5 647 L 1269 646.5 L 1267 645.5 L 1268.5 643 L 1269.5 646 L 1272 644.5 L 1270 644 L 1270 642 L 1275.5 642 Q 1274.8 639 1279 640 Q 1280.1 642.7 1277.5 642 L 1277.5 643 L 1287.5 642 L 1291.5 639 Z M 1310 644 L 1312 646 L 1314 646 Q 1313 643 1310 644 Z M 1282 646 L 1281 647 L 1273 647 L 1264 649 L 1248 655 L 1224 671 Q 1211 682 1203 697 L 1195 714 L 1190 737 L 1190 757 L 1195 779 Q 1204 801 1219 818 Q 1233 831 1252 839 L 1263 843 L 1278 846 L 1302 846 L 1329 839 L 1347 829 L 1362 817 L 1379 794 L 1385 780 L 1385 776 L 1370 771 L 1361 771 L 1350 773 L 1342 778 L 1320 797 L 1307 803 L 1296 805 L 1285 805 L 1275 803 Q 1262 799 1254 792 Q 1237 779 1232 756 L 1232 738 Q 1234 736 1233 732 L 1239 718 L 1246 708 Q 1258 693 1281 688 L 1300 688 L 1311 691 L 1324 698 L 1345 716 L 1359 721 L 1372 721 L 1380 719 L 1386 716 Q 1380 696 1368 683 L 1352 667 L 1328 653 L 1307 647 L 1282 646 Z M 1314 695 L 1314 697 L 1316 696 L 1314 695 Z M 1240 722 L 1237 726 L 1240 728 L 1240 722 Z M 1236 757 L 1235 760 L 1236 760 L 1236 757 Z M 1327 789 L 1325 791 L 1327 791 L 1327 789 Z M 1206 803 L 1205 805 L 1207 806 L 1206 803 Z M 1369 809 Q 1368 812 1371 811 Q 1372 808 1369 809 Z M 1353 825 Q 1352 828 1355 827 Q 1356 824 1353 825 Z M 1355 827 Q 1354 830 1357 829 Q 1358 826 1355 827 Z M 1335 837 L 1333 839 L 1335 839 L 1335 837 Z M 1326 841 L 1320 844 L 1326 844 Q 1327 847 1330 846 Q 1331 843 1329 844 L 1329 843 Q 1330 840 1326 841 Z " /><path fill="rgb(0,75,33)" stroke="rgb(0,75,33)" stroke-width="1" opacity="0.996078431372549" d="M 225.5 640 L 250.5 640 L 251 642 L 245.5 641 L 225.5 641 L 225.5 640 Z " /><path fill="rgb(0,75,33)" stroke="rgb(0,75,33)" stroke-width="1" opacity="0.996078431372549" d="M 384.5 640 L 391.5 640 L 392 642 L 384.5 641 L 384.5 640 Z " /><path fill="rgb(0,75,33)" stroke="rgb(0,75,33)" stroke-width="1" opacity="0.996078431372549" d="M 716 640 L 728 640.5 Q 722 640.5 719 643.5 L 721.5 645 L 783.5 645 L 785.5 644 L 793 647.5 Q 793.8 652.3 791.5 654 L 789 652.5 Q 788 658.5 792 659.5 L 788.5 666 L 787.5 665 L 784.5 668 Q 781.9 667.2 783 670.5 L 782 672.5 Q 785.8 674.3 782.5 676 L 777 679.5 L 775.5 683 L 773.5 680 L 771 684 Q 766.9 682.7 768 686 L 771 687.5 L 768 689 L 768 692 L 760 692 Q 762 698 756 696 L 756 704 L 746 704 L 746 698 L 751.5 698 Q 750.7 694.8 756 696 L 756 689 L 740.5 689 L 740 690.5 L 736 692 Q 738 698 732 696 L 732 702.5 L 730.5 704 L 724 704 L 724 712 L 731.5 712 Q 730.7 715.2 736 714 L 736 719 L 725.5 720 L 724.5 719 L 718 719 L 719.5 722 L 724.5 723 L 727.5 722 L 728.5 723 L 737 723 Q 735.8 726 739.5 725 L 741.5 724 L 744.5 725 L 748 724.5 L 746 724 Q 747.4 720.3 741.5 722 Q 738.5 720.5 741.5 719 L 746 718 L 746 720 L 752 720 L 752 726.5 L 753.5 729 L 758.5 727 L 761.5 733 L 768 732 L 769 736 Q 766.3 734.9 767 737.5 L 768.5 737 L 774 738 Q 773 742.3 776 743.5 L 775 745.5 L 779 748 L 778 744.5 L 778.5 742 Q 781.9 741.1 780 746.5 L 781 748.5 L 780 751.5 Q 783.1 753.3 781.5 755 L 785 756.5 L 785.5 760 L 786.5 758 L 787 762 L 785 762.5 L 788 766.5 L 787 769.5 L 789 771.5 L 789.5 782 L 790 780 Q 793.3 778.7 792 783.5 Q 788.6 786.1 790 793.5 Q 794.7 795.3 793 803.5 L 785 808.5 L 785 815 Q 781.3 813.5 782 816.5 Q 779.8 817.8 781 822.5 L 779.5 824 L 777.5 823 L 775 826.5 L 775.5 828 L 771 830.5 L 771.5 832 Q 770 829.5 768.5 833 Q 766.3 832.3 767 834.5 L 769 838 Q 773.1 836.7 772 840 L 768 840 Q 769 843 766 842 L 764 838.5 L 766 838 L 765.5 835 L 765 837 L 762 837.5 L 762.5 839 L 760.5 839 Q 757.2 837.9 758 840.5 L 757.5 842 Q 762.9 840.1 762 843.5 L 757 846.5 L 755.5 849 L 754 846.5 Q 756.3 845.3 753.5 844 L 751.5 843 L 749.5 846 Q 752.1 845.3 751 848 Q 746.5 846 737.5 847 L 735.5 849 L 666.5 849 L 664 845.5 L 665 842 Q 661.5 843.1 663 835.5 L 666 834 L 666.5 836 L 668 830.5 L 667 828 L 664 826.5 Q 661.7 819.3 669.5 822 L 669 823.5 L 670.5 826 L 675 817 L 677 816.5 L 676.5 815 Q 679.8 816.1 679 813.5 L 679 811.5 Q 678.2 808.5 682 810 L 682.5 812 L 684 809.5 L 683.5 808 L 685 808.5 Q 684.4 805.8 690.5 807 L 696 803.5 Q 695.1 800.1 700.5 802 L 705.5 803 L 705.5 802 Q 702.9 802.7 704 800 L 716.5 799 L 720 800 L 721.5 803 L 733 802.5 L 729 800.5 Q 729.8 798.3 733.5 799 L 735 799.5 L 734 794.5 L 736.5 790 L 738 790 L 738 795 L 740 795 L 741.5 792 Q 744.9 792.9 743 787.5 Q 745.8 786.4 745 783 L 743 783 L 743 777 L 740.5 777 L 737.5 772 L 733.5 774 Q 731 772.8 732 769 L 722.5 769 L 722 772 L 720 772 Q 721.8 767.5 716.5 769 L 714.5 768 Q 713 770.5 707.5 769 L 706 766 L 708 765.5 L 704 765 Q 705.9 770.6 701 769 L 699 765.5 L 703 765 Q 704.1 762.3 701.5 763 L 698.5 761 L 696.5 764 Q 691.7 765.7 693 761.5 L 689 755 L 687 755 L 687 753 L 685 753 L 685 751 Q 682.3 752.1 683 749.5 L 682 749.5 L 680.5 752 L 679 745 L 674 741.5 L 675 739.5 L 673 739 L 673 735 Q 670.3 736.1 671 733.5 L 668 732.5 L 669 726 L 667 726 L 667 717.5 Q 664 718.5 665 713.5 L 665 711.5 Q 665.8 707.3 663 706.5 L 663 700.5 L 667 693.5 L 664 692 L 663 679.5 L 666 678 L 666.5 688 L 671 680.5 L 671 677 Q 673.7 678.1 673 675.5 L 674 673.5 L 671.5 670 L 674 668.5 Q 673.4 663.4 676.5 662 Q 679.5 661.1 678 665.5 L 677 667.5 L 678.5 667 Q 681.1 667.7 680 665 L 682 665 L 682 662.5 L 684.5 659 Q 689.3 658.8 691 655.5 L 691 654 L 686 654 L 686 652.5 L 691 649.5 L 692.5 646 Q 695.9 645.1 694 650.5 L 697.5 652 L 705.5 647 L 711 646.5 L 710 644 Q 714.6 645.3 716 642.5 L 716 640 Z M 721 646 L 702 651 L 691 658 Q 680 666 673 679 L 667 698 L 667 716 L 669 725 L 679 744 Q 688 756 703 762 L 720 767 L 732 767 L 741 772 L 746 782 Q 747 791 744 796 Q 740 803 731 805 L 701 805 L 694 807 L 685 812 Q 668 822 667 847 L 673 846 L 738 846 Q 753 843 764 835 L 779 819 L 785 807 L 788 793 L 788 779 L 785 766 L 781 757 L 773 745 L 769 743 Q 770 740 767 741 L 767 739 L 759 733 L 745 727 L 734 726 L 733 725 L 723 725 L 718 723 L 709 713 Q 707 701 711 697 Q 715 691 723 688 L 750 688 Q 751 686 757 687 Q 768 684 775 677 Q 785 668 788 652 Q 789 646 788 646 L 721 646 Z M 788 659 L 787 663 L 788 663 L 788 659 Z M 760 687 L 761 689 L 764 689 Q 763 686 760 687 Z M 726 689 L 723 691 Q 718 690 720 694 L 717 693 L 718 696 Q 717 698 713 697 Q 712 702 716 700 Q 718 705 714 704 Q 710 705 711 711 Q 713 714 715 710 L 716 711 L 716 716 L 721 716 Q 722 713 718 714 L 720 711 L 720 695 Q 725 694 728 698 Q 730 697 728 696 Q 727 691 729 690 L 726 689 Z M 712 700 L 713 702 Q 714 699 712 700 Z M 714 716 L 716 719 L 718 719 L 714 716 Z M 764 733 L 766 735 Q 767 732 764 733 Z " /><path fill="rgb(0,75,33)" stroke="rgb(0,75,33)" stroke-width="1" opacity="0.996078431372549" d="M 926.5 640 L 931 640.5 L 926.5 641 L 926.5 640 Z " /><path fill="rgb(0,75,33)" stroke="rgb(0,75,33)" stroke-width="1" opacity="0.996078431372549" d="M 730.5 642 L 782.5 642 L 783 644 L 731.5 644 L 730.5 642 Z " /><path fill="rgb(0,75,33)" stroke="rgb(0,75,33)" stroke-width="1" opacity="0.996078431372549" d="M 256.5 643 L 258 645.5 L 257.5 647 L 261.5 648 L 264 647 L 263 650.5 L 265 651 L 264.5 653 Q 258.8 647.7 249.5 646 L 222 646 L 222.5 644 L 251.5 644 L 253.5 644 L 256.5 643 Z " /><path fill="rgb(0,75,33)" stroke="rgb(0,75,33)" stroke-width="1" opacity="0.996078431372549" d="M 900.5 644 L 903.5 645 L 918.5 645 L 920.5 644 Q 921.7 646.3 926.5 645 L 929.5 644 L 934.5 645 Q 935.8 642.8 937 645.5 L 937.5 647 L 939.5 647 L 950.5 647 L 953.5 649 L 955.5 648 L 961.5 654 L 971 656 L 971 659 Q 973.7 657.9 973 660.5 L 974 660.5 Q 972.9 657.2 975.5 658 Q 978 659.2 977 663 Q 980.4 662.3 981.5 665 L 983 664.5 L 982 667 L 984.5 668 Q 987.3 666.6 986 662 L 989 663.5 L 990.5 667 Q 994.7 665.9 993 670 Q 987.4 668.1 989 673 L 996 670 L 996 676 L 1001.5 676 L 1002 677.5 L 1000 682.5 L 1001 687 L 1006 688 L 1005 693 Q 1007.7 691.9 1007 694.5 L 1011.5 703 Q 1011.3 697.3 1014.5 695 L 1017 696.5 L 1015.5 699 Q 1012.9 698.2 1014 701.5 L 1013 702.5 L 1017 706.5 Q 1018.3 710.3 1014.5 709 L 1017 712.5 L 1015 715.5 L 1024 718 L 1024 720 Q 1029.2 718.3 1028 722 Q 1022.7 720.8 1023.5 724 L 1005.5 724 Q 1003.5 720 1001.5 724 L 990.5 723 L 988.5 723 Q 985.3 719.2 976.5 721 L 974.5 719 L 972 720 Q 973.3 716.7 968.5 718 Q 966.6 721.8 960 720 L 960 711.5 L 962 711 Q 960.8 714 964.5 713 L 964 711.5 L 961.5 708 L 959 706.5 Q 959.8 703.9 956.5 705 L 956.5 703 L 952 704 L 952 702 L 947 702 L 946 706 L 941 703.5 L 942.5 701 L 944 700.5 L 942 700 L 943 697.5 L 938 697 L 939 693.5 L 937.5 693 L 933 694 L 931.5 697 L 912 698 Q 913.1 695.3 910.5 696 L 910.5 695 L 913.5 696 Q 916.8 693.3 923.5 694 L 925 692.5 L 924.5 691 L 926 691 L 926.5 693 L 933.5 693 L 934.5 691 L 931.5 692 L 927 691 L 926.5 689 L 915.5 689 L 913.5 691 L 903 691.5 L 907 693.5 L 906 696 L 898.5 697 L 893.5 695 L 894 696.5 Q 895.7 701.3 891.5 700 L 890.5 697 Q 888.3 696.3 889 698.5 L 890 700.5 L 889 700.5 Q 889.8 698.3 887.5 699 L 885 702.5 Q 888.7 703.8 888 708 L 884 708 Q 886.1 713.2 881.5 712 L 880 716 L 874 715.5 L 875 713 Q 877.7 714.1 877 711.5 L 875.5 709 L 871 717.5 L 871.5 719 Q 868.9 718.2 870 721.5 L 872 723.5 Q 870.8 728.8 873.5 730 L 876 730 L 876 736 L 880 736 L 880 740 L 876 740 Q 877.7 745.2 874 744 L 874 736 Q 868 738 870 732 L 865 732 L 863 740.5 Q 866 741.8 865 746 L 868 746.5 L 868 765 L 866 765.5 L 868.5 769 L 870.5 766 L 872 766 L 872 770 Q 868.2 768.5 869 771.5 L 872 772.5 L 871.5 774 Q 873.8 773.3 873 775.5 L 874 777.5 Q 871.8 778.8 874.5 780 L 878 779 L 880 784.5 Q 877.7 785.8 880.5 787 L 883.5 785 L 885 788 Q 880.9 786.7 882 790 L 889.5 792 Q 890.7 789.8 895.5 791 Q 899 793 894.5 795 L 892 796.5 L 893.5 797 L 895.5 796 L 897 799 L 903.5 799 L 904 800.5 L 905.5 800 L 910.5 799 L 912 802 L 908 802.5 L 923.5 803 L 923.5 802 Q 919 803 918 800.5 L 921.5 799 L 939.5 799 L 941 797.5 L 940.5 796 L 942.5 797 L 945 796.5 L 946.5 794 L 949.5 792 L 951.5 793 L 951 791.5 L 952.5 788 L 958.5 787 L 960 785.5 L 964.5 779 Q 969.3 778.8 971 775.5 L 971 774 L 966 774 L 966 772.5 L 971 769.5 L 972.5 766 L 974 766 L 974 771 L 978.5 771 L 981.5 767 Q 987.6 766.4 990.5 769 L 1000.5 769 Q 1002.2 772.5 1008 771 Q 1006.7 774.3 1011.5 773 L 1015 775 Q 1013.8 772 1017.5 773 L 1015 776.5 L 1016 778.5 L 1013 788.5 L 1016 790 Q 1017.1 793.3 1013 792 Q 1014.3 787.9 1011 789 L 1009 796 Q 1006.3 794.9 1007 797.5 L 1009 801.5 Q 1010.1 805.7 1006 804 L 1006 807.5 Q 1007.3 810.3 1008.5 808 L 1012 808 L 1012 816 Q 1006 814 1008 820 L 1000 820 Q 1002 826 996 824 L 996 832 L 985.5 832 L 981 833 Q 980.3 829.6 983 828.5 L 981.5 827 L 979 827.5 Q 979.8 829.8 977.5 829 L 975 830.5 Q 977.2 831.8 974.5 833 L 973.5 831 L 970.5 836 L 968.5 835 L 969 836.5 L 967.5 839 L 965 839 L 964.5 841 L 960 841 L 960 848 L 954 848 L 952.5 844 L 948.5 849 L 945 847.5 Q 946.2 842.9 941 845 Q 942.3 848.3 937.5 847 L 935.5 848 L 933.5 847 L 931.5 847 L 926.5 847 L 920.5 849 L 904 849 Q 905.1 846.3 902.5 847 L 899.5 848 L 898 847.5 L 897.5 849 L 890.5 849 L 889 846 L 896 845.5 L 889 845 Q 890.3 842 886.5 843 L 882.5 841 L 880.5 843 L 878 842.5 L 880 841.5 L 874.5 839 L 872.5 840 L 873.5 838 L 875 837.5 L 869.5 835 Q 868 837.5 866.5 834 L 862.5 835 L 863 833.5 L 861.5 830 L 861 833 Q 856.3 833.8 855 829.5 L 855 825 Q 852.3 826.1 853 823.5 L 852 823.5 Q 852.9 826.5 848.5 825 L 846.5 820 L 845.5 822 L 844 817 Q 840.2 818 839 815.5 Q 840.5 808.5 837.5 809 L 834.5 804 L 834 806.5 L 835 808.5 L 834 812 Q 831 813.3 832 809.5 L 831 808.5 L 831 801 Q 826.5 802.8 828 797.5 L 829.5 798 Q 831.8 798.8 831 796.5 Q 829.8 793.8 828.5 796 L 823 793.5 L 824.5 790 L 827 791 L 825.5 787 L 823.5 788 L 823 785.5 Q 823.7 782.5 820 784 L 820 781 L 822 780.5 L 820 774.5 L 821 772.5 Q 817.9 771 818.5 766 L 816 767.5 L 815 762.5 L 816.5 763 Q 819.5 763.9 818 759.5 L 816 755.5 L 817 750.5 L 816 748.5 L 817 747.5 L 817 739.5 L 816 735.5 L 817 730.5 L 819 728.5 L 819 722.5 Q 816.7 721.2 818 716.5 L 815.5 714 Q 812.9 714.7 814 712 L 816 712 Q 814.9 709.3 817.5 710 L 819.5 711 L 821.5 710 L 823 710.5 Q 822.3 707.9 825 709 L 825 706.5 Q 827.8 705.4 827 702 L 825 702 Q 826.3 706.1 823 705 L 824 698 L 829 700 L 828 696.5 L 831 695 L 832 691 L 834 690.5 L 831 689.5 L 833.5 688 L 834.5 690 L 835 686.5 L 834 683 L 831 681.5 Q 830.3 677.8 832.5 677 L 836.5 685 L 840 682.5 L 841.5 680 Q 844.9 680.9 843 675.5 L 845.5 671 L 848.5 671 L 855 666.5 L 848 663.5 Q 847.3 661.3 849.5 662 L 855 664.5 Q 854.3 666.8 856.5 666 L 859 662 L 854 662 L 854 660.5 L 859 657.5 L 860.5 654 L 862 654 L 862 659 L 863.5 659 L 865.5 658 L 867 658.5 Q 865.3 653.3 870.5 655 L 870.5 653 L 874.5 655 L 875 653 Q 880.2 654.7 879 651 L 875 650.5 L 877 647 L 881 648.5 L 881.5 650 L 883.5 647 Q 888.1 646.4 889.5 649 Q 891 645.5 897.5 647 L 900.5 644 Z M 910 646 L 897 649 L 892 648 L 891 650 Q 869 656 854 670 Q 837 685 827 706 L 822 720 L 819 735 L 819 760 L 825 782 L 831 795 L 847 817 L 869 833 L 883 840 L 900 845 L 920 846 L 921 847 L 938 845 L 953 841 Q 970 834 984 823 Q 996 813 1005 799 Q 1011 789 1014 776 L 1008 773 L 999 771 L 990 771 L 979 773 L 972 777 L 949 797 L 941 801 L 926 805 Q 898 806 884 793 Q 867 781 861 758 L 861 736 L 862 732 Q 866 718 874 709 Q 887 693 910 688 L 929 688 L 940 691 L 957 701 L 972 715 L 987 721 L 1002 721 L 1009 719 L 1014 716 Q 1008 694 995 681 L 978 665 L 957 653 L 936 647 L 910 646 Z M 992 673 Q 990 676 993 675 L 992 673 Z M 996 677 Q 994 680 997 679 L 996 677 Z M 945 697 L 945 699 L 945 700 Q 950 702 949 699 L 945 697 Z M 880 707 L 878 709 L 880 709 L 880 707 Z M 1015 717 L 1014 719 L 1014 720 Q 1018 721 1017 719 L 1016 719 L 1015 717 Z M 866 726 L 865 729 L 866 729 L 866 726 Z M 826 792 L 826 794 Q 828 797 829 794 L 826 792 Z M 1005 802 L 1002 808 Q 1006 809 1004 804 L 1006 804 Q 1007 801 1005 802 Z M 998 812 L 994 816 Q 995 818 997 816 L 1000 817 L 1001 815 L 998 812 Z M 988 821 L 988 825 L 990 825 L 991 823 L 988 821 Z M 984 825 L 982 827 Q 984 830 985 827 Q 986 824 984 825 Z M 959 839 L 959 840 L 961 840 L 959 839 Z M 955 842 L 956 845 L 957 843 L 955 842 Z " /><path fill="rgb(0,75,33)" stroke="rgb(0,75,33)" stroke-width="1" opacity="0.996078431372549" d="M 1126 646 Q 1129.8 645 1131 647.5 L 1133 650.5 L 1129.5 651 L 1126 648.5 L 1126 646 Z " /><path fill="rgb(0,75,33)" stroke="rgb(0,75,33)" stroke-width="1" opacity="0.996078431372549" d="M 199.5 647 L 201 650 L 198 648.5 L 199.5 647 Z " /><path fill="rgb(0,75,33)" stroke="rgb(0,75,33)" stroke-width="1" opacity="0.996078431372549" d="M 696.5 647 Q 699.5 648.5 696.5 650 L 696.5 647 Z " /><path fill="rgb(0,75,33)" stroke="rgb(0,75,33)" stroke-width="1" opacity="0.996078431372549" d="M 296.5 653 Q 298.8 652.3 298 654.5 L 295 656 L 296.5 653 Z " /><path fill="rgb(0,75,33)" stroke="rgb(0,75,33)" stroke-width="1" opacity="0.996078431372549" d="M 202.5 654 Q 205.1 653.2 204 656.5 L 203 656.5 L 202.5 654 Z " /><path fill="rgb(0,75,33)" stroke="rgb(0,75,33)" stroke-width="1" opacity="0.996078431372549" d="M 1352 654 Q 1355.3 652.9 1354 657 Q 1350.7 658.1 1352 654 Z " /><path fill="rgb(0,75,33)" stroke="rgb(0,75,33)" stroke-width="1" opacity="0.996078431372549" d="M 209 656 Q 213.9 654.4 212 660 Q 207.1 661.6 209 656 Z " /><path fill="rgb(0,75,33)" stroke="rgb(0,75,33)" stroke-width="1" opacity="0.996078431372549" d="M 591 656 Q 594.7 654.5 594 657.5 L 591 657.5 L 591 656 Z " /><path fill="rgb(0,75,33)" stroke="rgb(0,75,33)" stroke-width="1" opacity="0.996078431372549" d="M 597.5 660 L 600 660 L 600 663 Q 602.7 661.9 602 664.5 L 609 668.5 Q 609.8 671.1 606.5 670 L 604.5 669 L 606 671.5 L 608.5 675 L 610.5 676 L 611 671.5 L 610.5 670 L 613.5 671 L 618 670 L 618 672 Q 620.7 670.9 620 673.5 L 617.5 672 L 615 673.5 L 613 678.5 Q 614.3 681.3 615.5 679 L 618.5 678 L 619 682 L 616 682.5 L 620 685 Q 618.7 689.1 622 688 Q 620.3 682.8 624 684 L 625 692 Q 629.1 690.7 628 694 L 625 695.5 Q 623.9 698.8 626.5 698 L 629 700.5 Q 627.8 705.8 630.5 707 Q 631.8 704.8 633 707.5 L 633 710 L 639.5 710 Q 638.7 713.2 644 712 L 644 720 Q 639.4 718.8 638 721.5 Q 638.7 724.1 636 723 L 635.5 721 L 635 723.5 L 636 726.5 L 639 736.5 Q 636.8 737.8 638 742.5 L 640 745.5 L 637 758 L 639 758.5 L 637 759 L 636 763.5 L 637 766 Q 634.3 764.9 635 767.5 L 633.5 769 L 500 769 L 500 774 L 496 774 L 496 779 L 494.5 779 L 490.5 778 L 491 779.5 Q 489.9 782.8 492.5 782 L 495.5 784 L 498 783 L 499.5 786 Q 504.6 785.4 506 788.5 Q 506.9 791.5 502.5 790 L 500.5 789 L 505.5 795 L 510 796 L 511.5 793 Q 514.3 794.4 513 799 Q 519.3 797.5 518.5 801 L 523.5 801 L 527.5 803 L 531.5 800 L 558.5 800 L 559.5 799 L 568.5 799 Q 569.8 801.3 574.5 800 L 579.5 799 L 581 801.5 L 580.5 803 L 588 802 L 588 805 L 592.5 805 L 593 807 L 595.5 807 L 598.5 809 L 599 807 L 604 807 L 604 810 Q 601.3 808.9 602 811.5 Q 603.3 815.7 609.5 815 L 612 814 L 615.5 822 Q 618.1 821.2 617 824.5 L 615 829.5 Q 618.5 831 617 837.5 L 616 837.5 L 612 825.5 L 605 816 L 598.5 811 L 584.5 805 L 532.5 805 L 531.5 804 L 519.5 803 Q 499.3 796.2 488 780.5 L 479 761.5 L 478 756.5 L 478 736.5 Q 482.7 712.2 499.5 700 Q 514.1 685.6 545.5 688 Q 570.6 692.9 583 710.5 L 590 725 L 524.5 725 Q 505.4 728.4 496 741.5 L 489 754.5 L 487 767 L 633.5 767 L 634 765.5 L 636 757.5 L 636 735.5 L 633 718.5 L 623 695.5 Q 613.8 680.2 600.5 669 L 594 665 L 597.5 660 Z M 530 689 Q 526 692 519 692 L 524 694 Q 529 692 528 696 Q 534 693 545 694 L 543 692 L 545 690 L 530 689 Z M 547 691 Q 546 693 550 693 L 546 698 L 529 698 L 528 696 L 518 696 L 516 698 L 516 700 L 506 700 Q 505 697 509 698 L 509 697 Q 504 696 505 699 L 503 700 L 505 700 Q 506 704 504 705 L 502 701 L 500 705 L 496 706 Q 492 708 497 711 L 496 713 L 496 727 L 498 727 L 498 730 Q 494 729 495 732 Q 499 731 501 734 L 502 734 Q 499 731 500 727 L 508 729 Q 508 726 513 727 L 512 726 Q 513 723 515 725 L 518 724 L 523 725 L 522 724 L 524 723 L 523 722 L 525 719 L 552 721 L 549 722 L 530 722 L 530 723 L 587 723 L 564 722 L 560 721 L 583 720 L 585 717 L 583 717 L 583 713 L 581 713 L 575 705 Q 570 706 572 702 Q 569 701 570 704 Q 569 707 567 704 Q 566 701 570 702 L 570 701 Q 565 702 567 698 L 566 698 L 561 695 L 560 700 L 556 700 Q 558 696 554 697 L 552 694 L 555 694 Q 553 689 552 692 L 547 691 Z M 488 717 L 487 719 L 489 718 L 488 717 Z M 486 719 Q 483 724 488 723 L 489 720 L 486 719 Z M 502 730 Q 501 733 504 732 Q 505 729 502 730 Z M 499 734 L 494 735 L 493 739 L 489 742 L 485 740 Q 479 742 480 738 L 479 738 L 480 743 L 479 754 L 482 752 Q 486 751 484 756 L 487 756 Q 486 753 489 752 Q 488 748 491 749 L 491 746 L 488 747 L 488 744 Q 493 746 492 742 L 498 738 L 500 735 L 499 734 Z M 487 735 L 487 739 L 491 738 Q 492 733 487 735 Z M 486 757 L 484 759 L 485 765 L 487 762 Q 488 758 486 757 Z M 484 765 Q 482 768 485 769 L 486 767 L 485 767 L 484 765 Z M 486 770 L 486 772 L 488 773 Q 489 769 486 770 Z M 537 801 L 535 802 L 535 803 L 576 803 L 574 801 L 571 802 L 537 801 Z M 610 817 L 609 819 L 611 820 L 610 817 Z " /><path fill="rgb(0,75,33)" stroke="rgb(0,75,33)" stroke-width="1" opacity="0.996078431372549" d="M 288 662 Q 291 661 290 664 L 286.5 666 L 286 664 Q 289 665 288 662 Z " /><path fill="rgb(0,75,33)" stroke="rgb(0,75,33)" stroke-width="1" opacity="0.996078431372549" d="M 1356.5 662 L 1363.5 662 L 1364 664 L 1358.5 666 L 1356.5 665 L 1355 665.5 L 1356.5 662 Z " /><path fill="rgb(0,75,33)" stroke="rgb(0,75,33)" stroke-width="1" opacity="0.996078431372549" d="M 840.5 669 Q 843.3 670.4 842 675 L 839 673.5 Q 838.3 669.8 840.5 669 Z " /><path fill="rgb(0,75,33)" stroke="rgb(0,75,33)" stroke-width="1" opacity="0.996078431372549" d="M 999.5 671 Q 1002.5 672.5 999.5 674 Q 997.3 674.8 998 672.5 L 999.5 671 Z " /><path fill="rgb(0,75,33)" stroke="rgb(0,75,33)" stroke-width="1" opacity="0.996078431372549" d="M 1216.5 671 L 1215.5 673 L 1216.5 671 Z " /><path fill="rgb(0,75,33)" stroke="rgb(0,75,33)" stroke-width="1" opacity="0.996078431372549" d="M 623 678 Q 627.1 676.7 626 680 Q 621.9 681.3 623 678 Z " /><path fill="rgb(0,75,33)" stroke="rgb(0,75,33)" stroke-width="1" opacity="0.996078431372549" d="M 783.5 678 L 784 680 L 782 679.5 L 783.5 678 Z " /><path fill="rgb(0,75,33)" stroke="rgb(0,75,33)" stroke-width="1" opacity="0.996078431372549" d="M 1300 694 L 1304 695.5 L 1300 696 L 1300 694 Z " /><path fill="rgb(0,75,33)" stroke="rgb(0,75,33)" stroke-width="1" opacity="0.996078431372549" d="M 337.5 704 L 338 720 L 336 719.5 L 336 705.5 L 337.5 704 Z " /><path fill="rgb(0,75,33)" stroke="rgb(0,75,33)" stroke-width="1" opacity="0.996078431372549" d="M 663 718 Q 665.7 716.9 665 719.5 L 666 723 L 663 721.5 L 663 718 Z " /><path fill="rgb(0,75,33)" stroke="rgb(0,75,33)" stroke-width="1" opacity="0.996078431372549" d="M 238 719 L 241 720.5 Q 241.7 723.5 238 722 L 238 719 Z " /><path fill="rgb(0,75,33)" stroke="rgb(0,75,33)" stroke-width="1" opacity="0.996078431372549" d="M 511.5 719 Q 516 718 517 720.5 L 518 722.5 L 511.5 723 L 510 720.5 L 511.5 719 Z " /><path fill="rgb(0,75,33)" stroke="rgb(0,75,33)" stroke-width="1" opacity="0.996078431372549" d="M 1377.5 722 L 1387 724 Q 1388.4 728 1381.5 726 L 1376.5 727 L 1375 723 L 1377.5 722 Z " /><path fill="rgb(0,75,33)" stroke="rgb(0,75,33)" stroke-width="1" opacity="0.996078431372549" d="M 432.5 723 Q 435.5 724.5 432.5 726 Q 429.5 724.5 432.5 723 Z " /><path fill="rgb(0,75,33)" stroke="rgb(0,75,33)" stroke-width="1" opacity="0.996078431372549" d="M 984.5 723 L 988 724.5 L 984.5 726 L 982 725.5 L 984.5 723 Z " /><path fill="rgb(0,75,33)" stroke="rgb(0,75,33)" stroke-width="1" opacity="0.996078431372549" d="M 330.5 726 L 335 727 L 336 734.5 Q 334.6 737.3 330 736 Q 331.7 730.8 328 732 Q 329.7 737.2 326 736 L 326 728 Q 330.8 729.7 330.5 726 Z " /><path fill="rgb(0,75,33)" stroke="rgb(0,75,33)" stroke-width="1" opacity="0.996078431372549" d="M 1350 726 Q 1353 725 1352 728 Q 1349 729 1350 726 Z " /><path fill="rgb(0,75,33)" stroke="rgb(0,75,33)" stroke-width="1" opacity="0.996078431372549" d="M 1367 726 Q 1370.8 725 1372 727.5 L 1368.5 729 L 1367 726 Z " /><path fill="rgb(0,75,33)" stroke="rgb(0,75,33)" stroke-width="1" opacity="0.996078431372549" d="M 890 728 Q 893 727 892 730 L 896 730 L 896 736 L 890 736 L 890 728 Z " /><path fill="rgb(0,75,33)" stroke="rgb(0,75,33)" stroke-width="1" opacity="0.996078431372549" d="M 1184 728 L 1186 728.5 L 1186 740 Q 1183.3 741.1 1184 738.5 Q 1181.3 736.8 1183 730.5 L 1184 728 Z " /><path fill="rgb(0,75,33)" stroke="rgb(0,75,33)" stroke-width="1" opacity="0.996078431372549" d="M 663 729 Q 666.7 727.5 666 730.5 L 667 732.5 Q 665.8 735 662 734 L 663 729 Z " /><path fill="rgb(0,75,33)" stroke="rgb(0,75,33)" stroke-width="1" opacity="0.996078431372549" d="M 774.5 734 L 776 734 L 776 736 Q 778.7 734.9 778 737.5 L 774.5 734 Z " /><path fill="rgb(0,75,33)" stroke="rgb(0,75,33)" stroke-width="1" opacity="0.996078431372549" d="M 393 736 L 400 736 L 400 740 L 396 740 Q 398.1 745.2 393.5 744 L 392 740.5 L 393 736 Z " /><path fill="rgb(0,75,33)" stroke="rgb(0,75,33)" stroke-width="1" opacity="0.996078431372549" d="M 432.5 747 L 434 754 Q 431.3 755.1 432 752.5 L 431 748.5 L 432.5 747 Z " /><path fill="rgb(0,75,33)" stroke="rgb(0,75,33)" stroke-width="1" opacity="0.996078431372549" d="M 639.5 762 Q 642.5 763.5 639.5 765 L 639.5 762 Z " /><path fill="rgb(0,75,33)" stroke="rgb(0,75,33)" stroke-width="1" opacity="0.996078431372549" d="M 790.5 762 Q 794.9 760.5 794 763.5 L 792 767.5 L 793 771.5 Q 791.5 774.5 790 771.5 L 791 766.5 L 789 763.5 L 790.5 762 Z " /><path fill="rgb(0,75,33)" stroke="rgb(0,75,33)" stroke-width="1" opacity="0.996078431372549" d="M 1006.5 767 Q 1012.3 766.3 1013 770.5 L 1010.5 771 L 1004 768.5 L 1006.5 767 Z " /><path fill="rgb(0,75,33)" stroke="rgb(0,75,33)" stroke-width="1" opacity="0.996078431372549" d="M 1388 774 L 1391 775.5 Q 1391.8 780.3 1389.5 782 Q 1386.9 779.5 1388 774 Z " /><path fill="rgb(0,75,33)" stroke="rgb(0,75,33)" stroke-width="1" opacity="0.996078431372549" d="M 728 775 Q 733.6 773.1 732 778 Q 726.4 779.9 728 775 Z " /><path fill="rgb(0,75,33)" stroke="rgb(0,75,33)" stroke-width="1" opacity="0.996078431372549" d="M 950 782 Q 953.8 781 955 783.5 L 953.5 786 Q 947.8 787.6 950 782 Z " /><path fill="rgb(0,75,33)" stroke="rgb(0,75,33)" stroke-width="1" opacity="0.996078431372549" d="M 886 783 Q 890.9 781.4 889 787 Q 884.1 788.6 886 783 Z " /><path fill="rgb(0,75,33)" stroke="rgb(0,75,33)" stroke-width="1" opacity="0.996078431372549" d="M 1250.5 783 L 1252 785.5 L 1250 786 L 1250.5 783 Z " /><path fill="rgb(0,75,33)" stroke="rgb(0,75,33)" stroke-width="1" opacity="0.996078431372549" d="M 1387.5 783 L 1392 784 L 1392 799.5 L 1388 800 L 1388 802.5 L 1387 802.5 L 1386 800.5 L 1386 784.5 L 1387.5 783 Z " /><path fill="rgb(0,75,33)" stroke="rgb(0,75,33)" stroke-width="1" opacity="0.996078431372549" d="M 1254.5 784 Q 1257.1 783.2 1256 786.5 L 1255 786.5 L 1254.5 784 Z " /><path fill="rgb(0,75,33)" stroke="rgb(0,75,33)" stroke-width="1" opacity="0.996078431372549" d="M 440.5 791 L 442 791 L 442 795 L 438 794.5 L 440.5 791 Z " /><path fill="rgb(0,75,33)" stroke="rgb(0,75,33)" stroke-width="1" opacity="0.996078431372549" d="M 942 792 Q 945 791 944 794 Q 941 795 942 792 Z " /><path fill="rgb(0,75,33)" stroke="rgb(0,75,33)" stroke-width="1" opacity="0.996078431372549" d="M 1019.5 794 L 1024 794 L 1024 804 L 1016 804 L 1016 801.5 L 1018 799.5 Q 1017 795 1019.5 794 Z " /><path fill="rgb(0,75,33)" stroke="rgb(0,75,33)" stroke-width="1" opacity="0.996078431372549" d="M 690 798 L 695 800.5 Q 693.8 803.8 690 803 L 690 798 Z " /><path fill="rgb(0,75,33)" stroke="rgb(0,75,33)" stroke-width="1" opacity="0.996078431372549" d="M 824.5 798 L 825 800.5 L 823 799.5 L 824.5 798 Z " /><path fill="rgb(0,75,33)" stroke="rgb(0,75,33)" stroke-width="1" opacity="0.996078431372549" d="M 438 799 Q 441.3 797.9 440 802 Q 436.7 803.1 438 799 Z " /><path fill="rgb(0,75,33)" stroke="rgb(0,75,33)" stroke-width="1" opacity="0.996078431372549" d="M 1200.5 806 L 1201 809.5 L 1200 809.5 L 1200.5 806 Z " /><path fill="rgb(0,75,33)" stroke="rgb(0,75,33)" stroke-width="1" opacity="0.996078431372549" d="M 363.5 809 L 365 812 L 362.5 813 L 362 811.5 L 363.5 809 Z " /><path fill="rgb(0,75,33)" stroke="rgb(0,75,33)" stroke-width="1" opacity="0.996078431372549" d="M 606 810 Q 610.1 808.7 609 812 Q 604.9 813.3 606 810 Z " /><path fill="rgb(0,75,33)" stroke="rgb(0,75,33)" stroke-width="1" opacity="0.996078431372549" d="M 672.5 813 L 675 814.5 L 672.5 819 Q 670.3 818.3 671 814.5 L 672.5 813 Z " /><path fill="rgb(0,75,33)" stroke="rgb(0,75,33)" stroke-width="1" opacity="0.996078431372549" d="M 792 816 L 794 816.5 L 794 832 L 791 831.5 L 791 820.5 L 792 816 Z " /><path fill="rgb(0,75,33)" stroke="rgb(0,75,33)" stroke-width="1" opacity="0.996078431372549" d="M 207 818 L 211 819.5 L 208.5 821 L 207 818 Z " /><path fill="rgb(0,75,33)" stroke="rgb(0,75,33)" stroke-width="1" opacity="0.996078431372549" d="M 784.5 819 L 786 819.5 L 786 832 L 782 832 L 782 821.5 L 784.5 819 Z " /><path fill="rgb(0,75,33)" stroke="rgb(0,75,33)" stroke-width="1" opacity="0.996078431372549" d="M 1016 826 L 1024 826 L 1024 832 L 1016 832 L 1016 826 Z " /><path fill="rgb(0,75,33)" stroke="rgb(0,75,33)" stroke-width="1" opacity="0.996078431372549" d="M 777.5 830 L 778 832 L 775 831.5 L 777.5 830 Z " /><path fill="rgb(0,75,33)" stroke="rgb(0,75,33)" stroke-width="1" opacity="0.996078431372549" d="M 215 838 Q 220.6 836.1 219 841 Q 213.4 842.9 215 838 Z " /><path fill="rgb(0,75,33)" stroke="rgb(0,75,33)" stroke-width="1" opacity="0.996078431372549" d="M 362 840 Q 365 839 364 842 L 368 842 L 368 848 L 362 848 L 362 840 Z " /><path fill="rgb(0,75,33)" stroke="rgb(0,75,33)" stroke-width="1" opacity="0.996078431372549" d="M 882 844 L 888 844 L 888 846 Q 884.7 844.9 886 849 L 883.5 849 Q 881 847.8 882 844 Z " /><path fill="rgb(0,75,33)" stroke="rgb(0,75,33)" stroke-width="1" opacity="0.996078431372549" d="M 498 845 L 503 846 L 501.5 849 Q 495.8 850.6 498 845 Z " /><path fill="rgb(0,75,33)" stroke="rgb(0,75,33)" stroke-width="1" opacity="0.996078431372549" d="M 229 846 L 234 846 L 234 848 L 230.5 849 L 229 846 Z " /><path fill="rgb(0,75,33)" stroke="rgb(0,75,33)" stroke-width="1" opacity="0.996078431372549" d="M 222 847 Q 225.3 845.9 224 850 Q 220.7 851.1 222 847 Z " /><path fill="rgb(0,75,34)" stroke="rgb(0,75,34)" stroke-width="1" opacity="1" d="M 0 1 L 1533 1 L 1533 1533 L 0 1533 L 0 1 Z M 1045 519 L 1043 523 L 1047 523 Q 1048 526 1045 525 L 1043 527 L 1043 812 L 1042 818 Q 1038 817 1037 821 L 1039 823 L 1042 822 L 1043 820 Q 1042 817 1045 818 L 1044 822 Q 1042 827 1046 826 L 1047 821 L 1047 824 Q 1051 826 1047 828 L 1051 830 L 1050 832 L 1054 834 L 1052 840 Q 1055 841 1054 839 Q 1056 834 1058 837 Q 1060 836 1059 839 L 1066 843 Q 1068 842 1067 845 L 1078 849 L 1088 849 L 1089 848 L 1089 558 L 1088 557 L 1089 552 L 1087 551 L 1085 552 Q 1084 549 1088 550 L 1088 546 L 1083 548 L 1082 545 L 1084 545 L 1084 540 L 1078 540 L 1077 541 L 1077 540 L 1075 537 Q 1076 534 1073 535 L 1072 532 L 1073 530 L 1072 527 Q 1067 526 1069 530 L 1066 529 Q 1062 530 1063 527 L 1057 527 L 1058 524 L 1055 525 L 1051 525 L 1055 524 L 1055 523 Q 1052 524 1053 522 Q 1050 518 1045 519 Z M 1041 526 Q 1038 531 1042 530 L 1041 526 Z M 1154 562 L 1151 564 Q 1144 562 1146 567 L 1142 568 Q 1139 567 1140 571 L 1137 571 L 1136 567 L 1133 569 Q 1132 572 1136 570 Q 1137 574 1132 572 L 1133 575 L 1132 575 L 1130 576 Q 1131 572 1129 573 Q 1127 576 1126 574 L 1124 575 L 1124 580 L 1118 580 L 1122 587 Q 1118 587 1119 593 L 1118 592 L 1116 598 L 1117 603 L 1116 602 L 1115 605 L 1114 603 L 1111 605 Q 1110 609 1112 611 L 1111 620 L 1113 621 L 1115 620 L 1114 625 L 1127 625 L 1130 623 L 1132 623 Q 1131 626 1134 625 L 1133 624 L 1135 624 L 1138 622 L 1141 618 L 1141 621 Q 1142 623 1139 622 L 1141 625 L 1152 624 L 1152 618 L 1150 618 Q 1149 614 1152 613 L 1151 612 L 1150 611 L 1147 613 L 1153 609 L 1155 609 L 1158 608 L 1155 606 Q 1153 601 1157 602 L 1158 599 Q 1161 597 1159 596 L 1159 593 Q 1162 593 1161 588 L 1164 588 Q 1166 584 1161 585 L 1162 565 Q 1160 561 1154 562 Z M 1121 575 L 1119 577 L 1122 578 L 1121 575 Z M 1113 590 Q 1110 591 1111 596 L 1114 597 L 1114 591 L 1113 590 Z M 308 636 L 308 640 L 300 640 L 300 649 L 304 650 Q 306 649 304 648 L 309 647 L 307 651 L 302 652 L 298 658 Q 299 660 297 659 L 295 663 L 291 664 L 292 667 L 288 675 L 289 677 L 288 679 L 290 679 L 290 680 L 288 679 Q 288 684 286 685 L 283 680 Q 282 677 281 679 L 283 676 L 285 677 L 283 677 L 284 679 L 286 678 L 287 679 L 287 672 L 282 672 L 279 672 L 280 668 L 277 667 L 278 660 L 281 658 L 282 654 Q 277 652 278 656 Q 275 657 276 654 L 272 656 L 267 653 L 265 654 Q 266 650 264 651 L 262 652 Q 265 650 264 647 L 262 648 L 258 647 L 258 646 L 257 643 L 253 645 L 252 644 L 222 644 L 222 646 L 221 645 L 219 646 L 219 652 L 216 652 L 216 658 L 220 658 L 221 656 Q 220 653 223 654 L 224 661 L 223 664 L 225 663 L 227 664 L 228 664 L 227 667 L 223 666 Q 219 667 220 664 L 218 665 L 218 680 L 212 680 L 211 681 L 211 680 L 209 679 L 208 674 L 209 672 L 208 666 L 206 667 L 203 661 L 205 661 L 202 660 L 196 650 Q 195 647 194 649 L 190 648 L 188 648 L 188 644 L 185 644 Q 186 648 184 647 L 182 644 L 176 644 L 177 640 L 171 640 L 170 642 L 165 644 Q 157 645 154 643 L 162 641 L 155 639 L 152 640 L 150 639 Q 145 642 147 650 L 143 652 Q 142 659 144 662 Q 150 664 148 657 L 151 657 L 151 663 L 153 663 L 152 668 L 153 671 Q 150 672 151 677 L 155 678 L 154 674 L 157 672 Q 156 676 159 678 Q 157 684 161 683 L 161 686 Q 158 685 159 688 L 163 690 L 162 697 Q 163 699 165 697 L 167 702 Q 166 704 169 703 L 168 705 L 170 708 Q 171 712 168 711 L 169 715 L 168 717 L 168 722 L 172 722 Q 171 725 174 724 Q 175 721 172 720 L 175 718 L 176 718 Q 174 719 175 725 L 175 727 L 179 730 L 177 731 L 175 733 Q 176 739 174 742 Q 178 743 179 741 L 178 739 Q 176 733 181 734 L 181 737 L 180 739 L 182 741 L 183 742 L 183 749 L 185 749 L 189 756 L 188 760 Q 186 766 191 764 L 193 772 L 195 774 L 194 781 L 190 782 L 193 786 Q 195 787 194 784 Q 197 783 196 786 L 199 785 L 203 792 L 203 795 Q 199 793 200 797 Q 203 801 205 800 Q 204 802 207 801 L 207 806 L 209 806 L 209 809 L 208 808 L 207 810 L 211 813 L 210 816 L 213 817 L 212 819 L 213 821 L 212 824 L 214 826 L 214 824 L 215 824 Q 214 828 217 827 L 216 831 Q 215 833 218 832 L 219 832 Q 220 835 217 834 L 219 837 Q 222 838 220 834 L 221 834 Q 220 836 223 835 L 224 838 L 223 842 L 223 843 L 226 843 Q 225 840 228 841 Q 229 844 227 843 L 227 844 L 231 843 L 233 845 L 238 845 Q 239 848 244 847 L 246 849 Q 252 850 255 847 L 255 849 L 262 849 L 267 846 L 272 845 L 274 845 Q 273 849 276 848 L 276 842 L 274 841 Q 273 837 276 838 L 278 833 L 279 837 L 278 841 L 279 844 L 282 836 Q 288 835 291 837 L 292 840 L 292 848 L 302 848 L 302 850 L 306 848 Q 307 845 303 846 L 303 843 L 315 849 L 325 849 L 325 847 L 327 847 L 330 848 L 332 847 Q 334 848 333 845 L 343 846 L 344 841 L 344 839 Q 346 840 345 837 L 348 839 L 347 841 Q 346 844 350 842 L 351 838 L 349 834 Q 354 832 353 836 Q 358 838 356 831 L 360 828 L 362 830 L 361 832 Q 366 834 364 828 L 368 828 L 368 816 L 362 816 Q 362 819 359 818 L 360 815 L 359 813 L 361 813 L 364 803 L 363 800 L 365 801 Q 369 799 366 798 Q 365 795 369 796 L 368 799 L 369 804 Q 374 806 372 800 L 380 800 L 380 792 L 373 792 L 372 791 L 372 789 L 374 790 L 376 782 L 372 775 L 375 776 Q 377 775 375 774 L 377 771 L 377 766 L 380 765 L 380 761 L 382 762 L 380 766 L 385 766 L 384 761 L 385 759 L 383 754 L 383 752 L 388 752 L 388 747 L 388 745 L 387 741 L 389 740 Q 388 735 391 734 Q 393 735 392 732 L 396 730 Q 397 727 395 728 L 393 725 L 396 723 Q 395 728 400 731 Q 402 730 401 727 L 398 725 L 397 721 Q 396 714 400 712 Q 406 714 404 708 Q 408 707 406 712 L 408 712 L 408 706 L 410 706 L 409 700 Q 407 696 405 701 Q 406 704 404 703 L 402 704 L 406 696 Q 405 693 408 694 L 409 693 L 409 685 L 410 685 Q 409 691 412 690 L 413 687 L 417 685 L 417 682 Q 412 684 413 680 L 417 679 L 416 675 Q 412 676 413 674 L 417 672 Q 418 669 416 670 L 416 669 Q 418 670 417 666 L 424 666 L 424 660 Q 420 662 421 658 Q 423 654 428 656 L 428 645 L 425 644 L 422 645 L 420 643 L 418 643 L 418 639 Q 413 641 403 640 L 396 644 L 398 645 L 397 645 L 395 645 L 390 644 L 388 644 Q 381 642 382 646 L 386 647 L 379 651 L 378 650 L 374 648 L 376 653 L 375 653 L 375 655 L 374 654 L 373 656 L 372 655 L 368 657 L 371 659 L 369 660 Q 366 661 367 666 L 365 664 L 366 662 Q 358 659 360 667 L 363 668 L 364 671 L 360 673 L 361 675 Q 362 679 359 680 L 359 682 L 346 682 L 346 688 Q 351 689 353 686 Q 356 685 354 690 Q 350 692 355 695 L 351 702 L 351 706 Q 348 705 349 711 L 347 711 L 347 710 Q 349 705 345 706 Q 342 707 343 711 Q 347 713 343 715 L 345 718 L 343 721 L 343 727 L 339 727 L 338 732 L 339 737 L 338 736 L 335 737 L 336 743 Q 335 745 334 743 L 332 743 L 332 747 L 331 747 Q 329 743 327 747 L 328 751 L 327 753 Q 327 757 330 758 L 330 759 L 329 757 L 327 767 L 325 766 L 325 768 L 323 778 L 322 778 Q 323 773 319 775 L 318 773 L 319 770 L 322 774 L 323 770 L 320 760 Q 321 757 318 758 L 317 763 L 318 765 L 318 768 L 317 767 L 316 767 L 315 765 L 317 762 L 316 759 Q 313 758 314 761 L 312 762 Q 315 760 313 755 L 311 755 Q 310 750 313 749 Q 312 742 315 743 Q 316 741 317 744 L 315 744 L 314 749 L 316 748 Q 318 749 317 746 L 320 746 L 320 740 L 317 740 Q 316 737 319 736 L 318 734 L 319 729 L 324 728 L 323 725 L 323 722 L 325 718 L 329 720 L 328 722 Q 327 725 330 724 L 330 708 L 331 707 Q 332 703 329 704 L 332 700 L 331 698 L 332 696 L 334 697 L 334 690 L 336 688 L 337 688 L 337 681 L 343 679 L 345 676 L 343 670 L 345 670 L 346 668 L 352 668 L 352 665 L 348 666 L 347 663 L 348 656 L 350 655 L 349 660 L 349 662 L 354 662 L 353 658 L 353 656 L 353 648 L 352 647 L 352 646 L 350 645 L 350 643 L 346 644 L 342 643 L 326 643 L 323 645 Q 318 646 319 643 L 314 641 L 314 638 L 310 638 Q 311 635 308 636 Z M 217 638 L 216 641 L 217 641 L 217 638 Z M 350 638 Q 348 643 352 642 Q 354 637 350 638 Z M 514 638 L 516 642 Q 522 640 520 645 L 515 644 L 514 647 Q 507 645 508 649 L 502 647 L 496 647 L 494 650 L 488 651 L 486 654 L 491 653 L 491 655 L 485 655 L 484 656 L 480 655 L 478 658 L 481 661 L 479 660 Q 476 661 478 663 L 477 662 Q 474 661 475 664 L 474 663 Q 469 662 470 665 L 464 667 L 462 670 L 468 669 L 466 672 Q 467 674 464 673 L 464 675 L 462 676 L 460 676 L 460 666 L 458 666 Q 459 669 456 671 L 458 677 Q 462 678 459 680 Q 456 679 457 682 Q 456 685 453 684 L 452 687 Q 453 690 450 689 L 449 693 Q 445 692 447 696 L 446 696 L 446 698 L 443 705 L 442 705 L 443 698 L 439 700 Q 438 705 441 706 L 439 715 L 437 712 Q 436 709 434 712 L 435 717 L 434 721 Q 433 723 437 722 Q 434 725 435 732 L 432 736 Q 431 740 435 738 L 434 744 L 435 749 L 435 763 L 433 763 L 431 765 L 431 774 L 430 775 Q 429 777 432 776 Q 436 774 435 768 L 437 769 L 436 774 L 436 775 L 439 776 L 439 786 Q 440 788 442 786 L 444 793 Q 442 797 446 796 L 447 796 Q 448 799 445 798 L 445 801 L 449 799 L 450 803 L 453 806 Q 448 808 449 804 L 448 804 Q 449 807 446 806 Q 445 809 448 808 L 448 812 Q 451 813 450 809 L 453 809 L 454 807 L 458 812 Q 460 811 459 814 Q 462 815 461 817 Q 464 816 463 820 L 465 819 L 468 824 L 471 825 L 473 826 L 472 828 L 474 827 L 473 829 L 476 829 L 475 831 L 477 833 Q 479 834 478 831 L 480 832 L 479 834 L 479 835 L 483 833 Q 487 835 483 838 L 486 841 L 496 839 L 496 842 L 494 843 L 498 843 L 499 841 L 500 844 L 504 843 Q 507 842 506 845 Q 512 844 515 846 L 516 848 L 519 846 L 519 848 L 526 847 Q 529 846 528 849 L 622 849 L 622 847 L 619 845 Q 618 841 622 842 L 622 839 L 620 838 L 618 839 L 616 840 L 617 838 Q 619 831 615 830 L 617 825 Q 618 821 616 822 L 612 814 L 610 815 Q 603 816 602 812 Q 601 809 604 810 L 604 807 L 599 807 L 599 809 L 596 807 L 593 807 L 593 805 L 588 805 L 588 802 L 581 803 L 581 802 L 580 799 L 575 800 Q 570 801 569 799 L 560 799 L 559 800 L 532 800 L 528 803 L 524 801 L 519 801 Q 519 797 513 799 Q 514 794 512 793 L 510 796 L 506 795 L 501 789 L 503 790 Q 507 791 506 789 Q 505 785 500 786 L 498 783 L 496 784 L 493 782 Q 490 783 491 780 L 491 778 L 495 779 L 496 779 L 496 774 L 500 774 L 500 769 L 634 769 L 635 768 Q 634 765 637 766 L 636 764 L 637 759 L 639 759 L 637 758 L 640 746 L 638 743 Q 637 738 639 737 L 636 727 L 635 724 L 636 721 L 636 723 Q 639 724 638 722 Q 639 719 644 720 L 644 712 Q 639 713 640 710 L 633 710 L 633 708 Q 632 705 631 707 Q 628 706 629 701 L 627 698 Q 624 699 625 696 L 628 694 Q 629 691 625 692 L 624 684 Q 620 683 622 688 Q 619 689 620 685 L 616 683 L 619 682 L 619 678 L 614 681 L 613 679 L 617 672 Q 619 673 618 670 L 614 671 L 611 670 L 611 672 L 611 676 L 609 675 L 606 672 L 605 669 L 607 670 Q 610 671 609 669 L 602 665 Q 603 662 600 663 L 600 660 Q 595 659 594 664 L 593 662 L 588 658 L 588 657 L 587 656 L 585 657 L 586 648 L 584 648 L 578 652 L 580 653 L 577 653 L 576 649 L 571 650 L 569 649 Q 564 650 565 647 L 559 647 L 557 644 L 552 645 Q 550 641 556 642 Q 559 641 556 639 Q 550 638 550 642 Q 548 639 543 640 L 546 645 L 528 645 L 539 642 L 540 641 L 533 639 Q 525 638 524 642 L 520 639 L 514 638 Z M 791 638 L 790 639 Q 783 637 785 642 L 793 642 L 794 641 Q 795 636 791 638 Z M 898 638 L 900 642 Q 906 644 904 639 L 898 638 Z M 1144 638 Q 1145 641 1142 640 L 1143 643 L 1142 646 L 1145 647 L 1138 648 L 1138 650 L 1130 655 L 1125 661 L 1120 659 Q 1118 664 1119 673 L 1118 673 Q 1119 669 1116 670 L 1117 673 L 1117 674 L 1116 673 L 1115 673 Q 1117 678 1112 676 L 1113 683 L 1112 685 L 1113 690 L 1114 685 L 1115 685 L 1115 839 L 1113 838 Q 1110 839 1111 843 L 1114 844 L 1115 842 L 1115 845 L 1113 846 Q 1110 848 1113 849 Q 1120 851 1123 847 Q 1129 846 1131 849 L 1136 849 L 1136 846 L 1141 846 L 1142 849 L 1146 850 L 1145 846 Q 1144 843 1148 844 Q 1149 840 1146 841 Q 1145 837 1148 836 L 1150 840 L 1152 839 L 1153 836 L 1150 835 L 1152 832 L 1156 833 Q 1155 830 1158 829 Q 1157 826 1160 827 L 1161 825 L 1158 823 L 1159 820 Q 1158 814 1161 815 L 1161 645 L 1159 645 L 1161 644 L 1162 642 Q 1159 643 1160 640 L 1156 641 L 1158 644 L 1154 644 L 1146 640 Q 1147 637 1144 638 Z M 321 639 L 321 642 Q 325 643 326 641 L 321 639 Z M 912 639 L 910 641 L 915 644 L 924 641 L 912 639 Z M 1292 639 L 1288 642 L 1278 643 L 1278 642 Q 1280 643 1279 640 Q 1275 639 1276 642 L 1270 642 L 1270 644 L 1272 645 L 1271 645 L 1271 647 L 1270 646 L 1269 647 L 1251 647 L 1249 649 L 1250 653 L 1249 652 L 1246 653 L 1247 655 L 1245 654 L 1233 661 L 1233 659 L 1231 662 Q 1232 664 1225 663 Q 1222 664 1223 670 L 1220 671 L 1214 677 L 1215 678 Q 1214 680 1213 678 L 1211 683 L 1209 684 Q 1206 683 1207 688 L 1207 690 L 1205 691 L 1202 690 L 1200 694 L 1203 693 Q 1204 696 1202 695 Q 1198 696 1199 701 L 1199 703 L 1198 702 L 1195 709 L 1193 710 L 1191 712 L 1191 725 L 1191 727 L 1189 727 L 1190 729 L 1188 729 L 1189 731 L 1188 734 L 1189 737 L 1189 748 L 1188 746 L 1186 745 L 1187 751 Q 1191 752 1188 754 L 1186 751 L 1183 753 L 1184 758 L 1183 760 Q 1182 765 1186 767 Q 1185 771 1188 770 L 1189 765 L 1191 768 L 1191 774 L 1193 777 L 1191 778 L 1193 778 L 1195 782 L 1195 785 L 1199 791 L 1199 802 L 1201 803 L 1203 803 L 1202 801 L 1207 805 L 1207 806 L 1205 803 L 1204 810 L 1207 809 L 1208 813 L 1207 813 L 1205 816 Q 1206 818 1210 817 Q 1213 815 1209 814 L 1211 811 L 1214 813 L 1218 819 L 1216 822 L 1219 820 Q 1221 819 1220 822 L 1223 823 Q 1224 826 1220 824 Q 1218 829 1222 828 L 1223 825 L 1227 829 L 1227 830 L 1222 830 L 1222 832 L 1224 833 L 1232 833 L 1233 830 L 1233 832 Q 1234 834 1239 833 L 1238 842 L 1245 837 Q 1247 836 1246 839 L 1250 839 L 1249 841 Q 1254 840 1257 843 Q 1262 841 1261 845 L 1265 846 Q 1269 845 1268 848 L 1273 849 Q 1278 851 1280 848 L 1282 849 L 1296 849 Q 1295 846 1301 847 L 1303 847 L 1316 850 L 1319 845 L 1322 846 Q 1325 845 1323 849 L 1328 848 L 1344 848 L 1344 843 Q 1341 843 1342 840 L 1336 841 L 1337 837 L 1341 834 L 1342 834 L 1342 838 L 1344 838 L 1345 834 L 1343 834 L 1349 831 L 1352 827 L 1353 832 L 1360 832 L 1360 825 L 1363 824 L 1358 822 L 1363 819 Q 1366 820 1364 816 L 1366 816 L 1368 819 L 1369 816 L 1373 813 L 1372 810 L 1371 810 Q 1372 812 1369 811 L 1368 809 L 1370 809 L 1373 808 L 1374 809 L 1373 807 L 1375 804 L 1377 805 L 1376 809 L 1378 808 Q 1382 809 1380 804 Q 1384 803 1382 808 L 1384 808 L 1384 804 L 1382 798 L 1381 800 L 1378 801 L 1377 799 L 1380 797 L 1380 794 L 1384 789 L 1385 782 L 1387 780 L 1385 775 L 1386 772 Q 1388 764 1382 766 Q 1383 770 1381 771 L 1373 771 L 1372 770 Q 1369 771 1370 768 L 1368 769 Q 1363 770 1362 768 L 1352 771 L 1349 767 L 1345 769 L 1346 771 L 1348 772 L 1345 773 Q 1342 772 1343 775 Q 1337 773 1335 777 L 1336 781 Q 1335 784 1331 783 L 1331 785 L 1331 786 L 1330 784 Q 1327 785 1329 787 L 1328 787 L 1327 790 Q 1328 792 1326 791 Q 1324 789 1323 792 Q 1324 794 1321 793 L 1321 791 L 1319 794 L 1317 793 L 1314 795 L 1317 797 Q 1315 800 1309 799 L 1307 801 L 1299 799 L 1297 803 L 1284 803 L 1287 801 Q 1285 798 1280 799 L 1280 801 L 1275 801 L 1275 800 L 1274 799 L 1274 797 L 1269 799 L 1268 796 L 1266 797 L 1264 794 L 1262 795 L 1260 791 Q 1261 788 1259 789 Q 1257 786 1256 790 L 1249 787 Q 1250 784 1247 783 L 1249 782 L 1247 775 L 1241 775 Q 1242 771 1239 772 L 1240 769 L 1240 764 L 1238 762 L 1237 753 Q 1235 751 1238 750 L 1240 753 L 1242 752 L 1241 755 L 1242 756 L 1248 756 L 1248 746 Q 1243 747 1244 744 L 1236 744 L 1236 740 L 1232 737 L 1234 737 Q 1236 736 1235 732 L 1238 734 L 1238 736 L 1243 736 L 1243 725 L 1244 724 L 1243 721 Q 1240 722 1241 718 Q 1245 715 1244 713 Q 1246 714 1245 711 L 1247 711 L 1247 709 Q 1252 707 1250 713 L 1246 712 Q 1245 715 1248 714 Q 1249 717 1247 716 L 1245 716 L 1247 723 L 1248 732 L 1248 723 L 1249 722 Q 1248 719 1252 720 L 1252 714 L 1258 714 Q 1257 711 1260 712 L 1260 708 L 1264 708 Q 1263 705 1266 706 L 1266 702 L 1260 701 L 1260 703 L 1258 706 Q 1259 709 1254 707 L 1252 707 Q 1253 709 1250 708 L 1250 707 Q 1252 708 1251 705 L 1253 705 L 1256 701 Q 1258 702 1257 700 L 1259 700 Q 1261 701 1260 699 L 1264 697 Q 1265 693 1267 696 Q 1269 697 1268 693 Q 1272 692 1271 695 Q 1278 694 1281 698 L 1288 698 L 1288 695 L 1279 694 L 1277 691 L 1282 692 L 1296 692 L 1296 691 L 1296 689 L 1298 690 Q 1301 689 1300 692 L 1302 691 L 1304 692 L 1306 691 L 1306 694 L 1305 696 L 1309 697 L 1312 697 L 1313 700 L 1319 700 L 1319 704 L 1322 705 L 1325 704 Q 1324 701 1327 702 L 1331 708 L 1328 709 L 1326 709 L 1327 712 L 1331 714 L 1332 714 L 1331 711 L 1334 709 L 1335 712 L 1341 717 L 1340 720 L 1346 721 L 1348 721 Q 1354 719 1354 723 L 1356 724 Q 1361 723 1363 725 L 1371 723 Q 1375 724 1374 721 Q 1382 722 1386 720 L 1384 719 L 1387 717 L 1388 717 Q 1386 722 1392 720 Q 1393 717 1390 718 L 1388 715 L 1390 715 Q 1394 717 1393 713 L 1390 711 L 1387 713 L 1387 711 L 1385 711 L 1385 705 L 1384 705 L 1383 701 L 1381 701 Q 1385 699 1384 694 L 1378 695 L 1376 696 L 1377 690 L 1373 688 L 1374 686 L 1374 688 L 1377 688 L 1377 680 L 1374 678 L 1374 683 L 1373 682 L 1366 679 L 1368 678 Q 1369 674 1366 673 L 1363 675 L 1363 674 L 1361 673 L 1360 669 L 1359 671 L 1358 671 L 1359 668 L 1357 669 L 1354 667 Q 1348 664 1354 662 L 1352 660 L 1350 663 L 1344 660 Q 1343 657 1347 658 L 1347 654 L 1342 657 L 1338 655 L 1338 653 L 1335 654 L 1333 653 Q 1328 654 1329 651 L 1333 651 L 1331 647 Q 1327 646 1326 650 L 1322 650 Q 1323 646 1321 647 Q 1318 651 1316 647 Q 1317 643 1314 644 L 1314 646 L 1309 645 L 1314 643 L 1304 640 Q 1303 643 1306 642 Q 1309 644 1306 645 L 1282 645 L 1294 644 L 1300 641 Q 1298 637 1292 639 Z M 226 640 L 226 641 L 246 641 L 251 642 L 251 640 L 226 640 Z M 385 640 L 385 641 L 392 642 L 392 640 L 385 640 Z M 716 640 L 716 643 Q 715 645 710 644 L 711 647 Q 705 646 703 649 Q 700 650 702 652 L 701 651 L 698 652 L 694 651 Q 696 645 693 646 L 691 650 L 686 653 L 686 654 L 691 654 L 691 656 Q 689 659 685 659 L 682 663 L 682 665 L 680 665 Q 681 668 679 667 L 677 668 L 678 666 Q 679 661 677 662 Q 673 663 674 669 L 672 670 L 674 674 L 673 676 Q 674 678 671 677 L 671 681 L 667 688 L 666 678 L 663 680 L 664 692 L 667 694 L 663 701 L 663 707 Q 666 707 665 712 L 665 714 Q 664 719 667 718 L 667 726 L 669 726 L 668 733 L 671 734 Q 670 736 673 735 L 673 739 L 675 740 L 674 742 L 679 745 L 681 752 L 682 750 L 683 750 Q 682 752 685 751 L 685 753 L 687 753 L 687 755 L 689 755 L 693 762 Q 692 766 697 764 L 699 761 L 702 763 Q 704 762 703 765 L 699 766 L 701 769 Q 706 771 704 765 L 708 766 L 706 766 L 708 769 Q 713 771 715 768 L 717 769 Q 722 768 720 772 L 722 772 L 723 769 L 732 769 Q 731 773 734 774 L 738 772 L 741 777 L 743 777 L 743 783 L 745 783 Q 746 786 743 788 Q 745 793 742 792 L 740 795 L 738 795 L 738 790 L 737 790 L 734 795 L 735 800 L 734 799 Q 730 798 729 801 L 733 803 L 722 803 L 720 800 L 717 799 L 704 800 Q 703 803 706 802 L 706 803 L 701 802 Q 695 800 696 804 L 691 807 L 685 807 L 683 812 L 682 810 Q 678 808 679 812 L 679 814 Q 680 816 677 815 L 677 817 L 675 817 L 671 826 L 669 824 L 670 822 Q 662 819 664 827 L 667 828 L 668 831 L 667 836 L 666 834 L 663 836 Q 662 843 665 842 L 664 847 L 666 846 L 667 849 L 736 849 L 738 847 Q 746 846 751 848 Q 752 845 750 846 L 752 843 L 754 844 Q 756 845 754 847 L 756 849 L 757 847 L 762 844 Q 763 840 758 842 L 758 841 L 757 839 L 759 839 L 765 837 L 766 835 L 766 838 L 764 839 L 766 842 Q 769 843 768 840 L 772 840 Q 773 837 769 838 L 767 833 L 776 828 L 775 827 L 779 822 L 778 824 L 780 824 L 781 823 Q 780 818 782 817 Q 781 813 785 815 L 785 809 L 793 804 Q 795 795 790 794 Q 789 786 792 784 Q 793 779 790 780 L 790 782 L 789 772 L 787 770 L 788 767 L 785 763 L 787 762 L 787 758 L 786 760 L 785 757 L 784 757 L 784 756 L 782 755 Q 783 753 780 752 L 781 749 L 780 747 Q 782 741 779 742 L 778 745 L 779 748 L 775 746 L 776 744 Q 773 742 774 738 L 769 737 L 767 738 Q 766 735 769 736 L 768 732 L 762 733 L 759 727 L 754 729 L 752 727 L 752 720 L 746 720 L 746 718 L 742 719 Q 739 721 742 722 Q 747 720 746 724 L 748 725 L 745 725 L 742 724 L 740 725 Q 736 726 737 723 L 729 723 L 728 722 L 725 723 Q 719 724 718 721 Q 719 718 716 719 L 714 716 L 719 719 Q 724 718 726 720 L 736 719 L 736 714 Q 731 715 732 712 L 724 712 L 724 704 L 731 704 L 732 703 L 732 696 L 736 696 Q 734 691 739 692 L 740 689 L 756 689 L 756 696 Q 762 698 760 692 L 768 692 L 768 689 L 771 688 L 768 686 Q 767 683 771 684 L 774 680 L 776 683 L 777 680 L 783 676 Q 786 674 782 673 L 783 671 Q 782 667 785 668 L 788 665 L 789 666 L 792 660 Q 788 659 789 653 L 792 654 Q 794 652 793 648 L 786 644 L 784 645 L 722 645 L 719 644 Q 722 640 728 641 L 716 640 Z M 927 640 L 927 641 L 931 641 L 927 640 Z M 731 642 L 732 644 L 783 644 L 783 642 L 731 642 Z M 1269 643 L 1267 646 L 1269 646 L 1269 643 Z M 901 644 Q 899 649 892 647 L 893 650 Q 890 651 891 649 L 890 649 Q 888 646 884 647 L 882 650 L 881 649 L 877 647 L 875 651 L 879 651 Q 880 655 875 653 L 875 655 L 871 653 L 871 655 Q 865 653 867 659 L 866 658 L 864 659 L 862 659 L 862 654 L 861 654 L 859 658 L 854 661 L 854 662 L 859 662 L 859 664 L 851 670 L 846 671 Q 842 673 843 680 L 844 681 L 842 680 L 840 683 L 837 685 L 833 677 Q 830 678 831 682 L 834 683 L 835 690 L 832 691 L 831 695 L 828 697 L 829 700 L 824 698 L 823 705 Q 826 706 825 702 L 827 702 L 828 706 L 825 707 L 825 709 Q 822 708 823 711 L 822 710 L 820 711 L 818 710 Q 815 709 816 712 L 814 712 Q 813 715 816 714 L 818 717 Q 817 721 819 723 L 819 729 L 817 731 L 816 736 L 817 740 L 817 748 L 816 749 L 817 751 L 816 756 L 818 760 Q 819 764 817 763 L 815 763 L 816 768 L 819 766 Q 818 771 821 773 L 820 775 L 822 781 L 820 781 L 820 784 Q 824 782 823 786 L 826 787 L 827 791 L 825 790 L 823 794 L 827 795 L 826 794 Q 825 791 828 792 Q 831 794 827 796 L 829 796 Q 830 794 831 797 Q 832 799 830 798 L 828 798 Q 827 803 831 801 L 831 809 L 832 810 Q 831 813 834 812 L 835 809 L 834 807 L 835 804 L 838 809 Q 840 808 839 816 Q 840 818 844 817 L 846 822 L 847 820 L 849 825 Q 853 826 852 824 L 853 824 Q 852 826 855 825 L 855 830 Q 856 834 861 833 L 862 830 L 863 834 L 863 835 L 867 834 Q 868 837 870 835 L 875 837 L 876 837 L 874 838 L 873 840 L 875 839 L 880 842 L 878 843 L 881 843 L 883 841 L 887 843 Q 890 842 889 845 L 896 846 L 889 846 L 891 849 L 898 849 L 898 848 L 900 848 L 903 847 Q 905 846 904 849 L 921 849 L 927 847 L 932 847 L 934 847 L 936 848 L 938 847 Q 942 848 941 845 Q 946 843 945 848 L 949 849 L 955 841 L 957 843 L 956 845 L 955 842 L 953 845 L 954 848 L 960 848 L 960 841 L 965 841 L 965 839 L 968 839 L 969 837 L 969 835 L 971 836 L 974 831 L 975 833 Q 977 832 975 831 L 978 829 Q 980 830 979 828 L 981 828 L 985 825 L 981 831 L 981 833 L 986 832 L 996 832 L 996 824 Q 1002 826 1000 820 L 1008 820 Q 1006 814 1012 816 L 1012 808 L 1008 809 Q 1005 808 1006 804 Q 1002 803 1004 808 L 1002 808 L 1005 802 Q 1007 801 1006 804 Q 1010 806 1009 802 L 1007 798 Q 1006 795 1009 796 L 1011 791 Q 1010 788 1013 789 L 1016 779 L 1015 777 L 1018 773 Q 1014 772 1015 775 L 1012 773 L 1009 773 L 1007 774 L 1008 771 Q 1002 773 1001 769 L 991 769 Q 988 766 982 767 L 979 771 L 974 771 L 974 766 L 973 766 L 971 770 L 966 773 L 966 774 L 971 774 L 971 776 Q 969 779 965 779 L 960 786 L 959 787 L 953 788 L 951 792 L 952 793 L 950 792 L 947 794 L 945 797 L 943 797 L 941 796 L 942 799 L 941 798 L 940 799 L 922 799 L 918 801 Q 919 803 924 802 L 924 803 L 908 803 L 912 802 L 911 799 L 906 800 L 904 801 L 904 799 L 897 799 L 896 796 L 894 797 L 892 797 L 895 795 Q 899 793 896 791 Q 891 790 890 792 L 882 790 Q 881 787 885 788 L 884 785 L 881 787 Q 876 785 879 784 L 878 779 L 875 780 Q 872 779 874 778 L 873 776 Q 874 773 872 774 L 872 773 L 869 772 Q 868 768 872 770 L 872 766 L 871 766 L 869 769 L 866 766 L 868 765 L 868 747 L 865 746 Q 866 742 863 741 L 865 732 L 870 732 Q 868 738 874 736 L 874 744 Q 878 745 876 740 L 880 740 L 880 736 L 876 736 L 876 730 L 874 730 Q 871 729 872 724 L 870 722 Q 869 718 872 719 L 871 718 L 876 709 L 877 712 Q 878 714 875 713 L 874 716 L 880 716 L 882 712 Q 886 713 884 708 L 888 708 Q 889 704 885 703 L 888 699 Q 890 700 889 698 L 889 696 L 891 697 Q 893 698 891 700 L 894 700 L 893 696 L 897 694 L 898 695 L 896 696 L 899 697 L 906 696 L 907 694 L 903 692 L 914 691 L 916 689 L 927 689 L 927 691 L 932 692 L 935 691 L 934 693 L 927 693 L 926 691 L 925 691 L 925 693 L 924 694 Q 917 693 914 696 Q 911 695 912 698 L 932 697 L 933 694 L 938 693 L 939 694 L 938 697 L 943 698 L 942 700 L 945 699 Q 944 696 948 697 L 949 700 L 943 701 L 941 704 L 946 706 L 947 702 L 952 702 L 952 704 L 957 703 L 957 705 Q 960 704 959 707 L 962 708 L 964 712 L 965 713 Q 961 714 962 711 L 960 712 L 960 720 L 967 720 L 973 717 L 974 718 L 972 718 Q 971 721 974 720 Q 975 717 977 721 L 986 721 L 987 720 L 986 722 L 989 723 L 991 723 L 1002 724 Q 1004 720 1006 724 L 1024 724 Q 1023 721 1028 722 Q 1029 718 1024 720 L 1024 718 L 1015 716 L 1017 713 L 1015 709 Q 1018 710 1017 707 L 1013 703 L 1014 702 Q 1013 698 1016 699 L 1017 697 L 1015 695 Q 1011 697 1012 703 L 1007 695 Q 1008 692 1005 693 L 1006 688 L 1001 687 L 1000 683 L 1002 678 L 1002 676 L 996 676 L 996 670 L 993 671 Q 989 673 994 676 L 993 675 Q 990 676 991 673 L 989 673 Q 987 668 993 670 Q 995 666 991 667 L 988 662 Q 984 661 986 667 Q 985 669 984 667 Q 981 668 982 666 Q 981 662 977 663 Q 978 659 976 658 Q 973 657 974 661 L 973 661 Q 974 658 971 659 L 971 656 L 962 654 Q 960 650 959 653 Q 960 651 956 648 L 954 649 L 951 647 L 940 647 L 938 647 L 937 646 Q 936 643 935 645 L 930 644 L 927 645 Q 922 646 921 644 L 919 645 L 904 645 L 901 644 Z M 1126 646 L 1126 649 L 1130 651 L 1133 651 L 1131 648 Q 1130 645 1126 646 Z M 200 647 L 198 649 L 201 650 L 200 647 Z M 697 647 L 697 650 Q 700 649 697 647 Z M 272 651 L 270 653 Q 269 655 273 654 L 272 651 Z M 297 653 L 295 656 L 298 655 Q 299 652 297 653 Z M 203 654 L 203 657 L 204 657 Q 205 653 203 654 Z M 1352 654 Q 1351 658 1354 657 Q 1355 653 1352 654 Z M 1238 655 L 1236 657 L 1238 657 L 1238 655 Z M 209 656 Q 207 662 212 660 Q 214 654 209 656 Z M 591 656 L 591 658 L 594 658 Q 595 654 591 656 Z M 1124 656 Q 1123 659 1126 658 Q 1127 655 1124 656 Z M 595 659 L 593 661 L 595 661 L 595 659 Z M 288 662 Q 287 665 290 664 Q 291 661 288 662 Z M 848 662 L 848 664 L 852 666 Q 856 667 855 665 L 848 662 Z M 1357 662 L 1355 666 L 1357 665 L 1359 666 L 1364 664 L 1364 662 L 1357 662 Z M 286 664 L 286 666 L 288 665 L 286 664 Z M 841 669 Q 838 670 839 674 L 842 675 Q 843 670 841 669 Z M 1000 671 L 998 673 Q 997 675 1000 674 Q 1003 673 1000 671 Z M 619 672 L 620 674 Q 621 671 619 672 Z M 454 678 Q 452 681 455 682 Q 457 683 456 679 L 454 678 Z M 623 678 Q 622 681 626 680 Q 627 677 623 678 Z M 784 678 L 782 680 L 784 680 L 784 678 Z M 447 685 L 449 689 Q 451 690 450 687 L 447 685 Z M 834 688 L 831 690 L 834 690 L 834 688 Z M 1300 694 L 1300 696 L 1304 696 L 1300 694 Z M 752 696 L 752 698 L 746 698 L 746 704 L 756 704 L 756 696 L 752 696 Z M 335 697 L 333 699 Q 331 704 337 702 L 337 697 L 335 697 Z M 1196 700 L 1196 702 L 1198 701 L 1196 700 Z M 1256 702 L 1258 704 Q 1259 701 1256 702 Z M 338 704 L 336 706 L 336 720 L 338 720 L 338 704 Z M 411 710 Q 411 713 408 712 L 408 720 Q 411 719 410 724 Q 414 725 412 720 L 420 720 L 420 714 Q 415 716 416 712 Q 412 713 411 710 Z M 663 718 L 663 722 L 666 723 L 665 720 Q 666 717 663 718 Z M 1378 722 L 1375 723 L 1377 727 L 1382 726 Q 1388 728 1387 724 L 1378 722 Z M 433 723 Q 430 725 433 726 Q 436 725 433 723 Z M 985 723 Q 982 725 985 726 L 988 725 L 985 723 Z M 1188 723 L 1187 725 Q 1191 726 1190 724 L 1188 723 Z M 331 726 Q 331 730 326 728 L 326 736 Q 330 737 328 732 Q 332 731 330 736 Q 335 737 336 735 L 335 727 L 331 726 Z M 1350 726 Q 1349 729 1352 728 Q 1353 725 1350 726 Z M 1367 726 L 1369 729 L 1372 728 Q 1371 725 1367 726 Z M 890 728 L 890 736 L 896 736 L 896 730 L 892 730 Q 893 727 890 728 Z M 1184 728 L 1183 731 Q 1181 737 1184 739 Q 1183 741 1186 740 L 1186 729 L 1184 728 Z M 663 729 L 662 734 Q 666 735 667 733 L 666 731 Q 667 728 663 729 Z M 775 734 L 776 736 Q 777 733 775 734 Z M 393 736 L 392 741 L 394 744 Q 398 745 396 740 L 400 740 L 400 736 L 393 736 Z M 777 736 L 778 738 Q 779 735 777 736 Z M 433 747 L 431 749 L 432 753 Q 431 755 434 754 L 433 747 Z M 640 762 L 640 765 Q 643 764 640 762 Z M 791 762 L 789 764 L 791 767 L 790 772 Q 792 775 793 772 L 792 768 L 794 764 Q 795 761 791 762 Z M 1007 767 L 1004 769 L 1011 771 L 1013 771 Q 1012 766 1007 767 Z M 1388 774 Q 1387 779 1390 782 Q 1392 780 1391 776 L 1388 774 Z M 728 775 Q 726 780 732 778 Q 734 773 728 775 Z M 1334 780 L 1332 782 L 1334 782 L 1334 780 Z M 950 782 Q 948 788 954 786 L 955 784 Q 954 781 950 782 Z M 886 783 Q 884 789 889 787 Q 891 781 886 783 Z M 1251 783 L 1250 786 L 1252 786 L 1251 783 Z M 1388 783 L 1386 785 L 1386 801 L 1387 803 L 1388 803 L 1388 800 L 1392 800 L 1392 784 L 1388 783 Z M 1255 784 L 1255 787 L 1256 787 Q 1257 783 1255 784 Z M 1323 787 Q 1322 790 1325 789 Q 1326 786 1323 787 Z M 1014 789 L 1013 792 Q 1017 793 1016 790 L 1014 789 Z M 1197 790 L 1195 793 L 1195 794 L 1198 793 Q 1199 789 1197 790 Z M 1384 790 L 1381 796 Q 1380 798 1383 797 L 1385 794 L 1384 790 Z M 441 791 L 438 795 L 442 795 L 442 791 L 441 791 Z M 1264 791 Q 1263 796 1267 794 Q 1269 790 1264 791 Z M 942 792 Q 941 795 944 794 Q 945 791 942 792 Z M 1020 794 Q 1017 795 1018 800 L 1016 802 L 1016 804 L 1024 804 L 1024 794 L 1020 794 Z M 690 798 L 690 803 Q 694 804 695 801 L 690 798 Z M 825 798 L 823 800 L 825 801 L 825 798 Z M 438 799 Q 437 803 440 802 Q 441 798 438 799 Z M 1201 806 L 1200 810 L 1201 810 L 1201 806 Z M 1387 806 Q 1387 809 1384 808 L 1384 816 Q 1387 815 1386 820 Q 1390 821 1388 816 L 1396 816 L 1396 810 Q 1391 812 1392 808 Q 1388 809 1387 806 Z M 364 809 L 362 812 L 363 813 L 365 812 L 364 809 Z M 606 810 Q 605 813 609 812 Q 610 809 606 810 Z M 673 813 L 671 815 Q 670 818 673 819 L 675 815 L 673 813 Z M 1212 814 L 1212 816 L 1214 815 L 1212 814 Z M 792 816 L 791 821 L 791 832 L 794 832 L 794 817 L 792 816 Z M 207 818 L 209 821 L 211 820 L 207 818 Z M 785 819 L 782 822 L 782 832 L 786 832 L 786 820 L 785 819 Z M 1016 826 L 1016 832 L 1024 832 L 1024 826 L 1016 826 Z M 778 830 L 775 832 L 778 832 L 778 830 Z M 215 838 Q 213 843 219 841 Q 221 836 215 838 Z M 1055 838 L 1055 840 Q 1057 843 1058 840 Q 1059 836 1055 838 Z M 362 840 L 362 848 L 368 848 L 368 842 L 364 842 Q 365 839 362 840 Z M 882 844 Q 881 848 884 849 L 886 849 Q 885 845 888 846 L 888 844 L 882 844 Z M 1064 844 L 1064 846 L 1062 846 L 1062 850 L 1064 850 L 1067 846 L 1064 844 Z M 498 845 Q 496 851 502 849 L 503 846 L 498 845 Z M 229 846 L 231 849 L 234 848 L 234 846 L 229 846 Z M 343 846 L 342 850 Q 347 852 346 848 L 343 846 Z M 509 846 L 509 848 L 513 849 Q 515 844 509 846 Z M 222 847 Q 221 851 224 850 Q 225 846 222 847 Z " /><path fill="rgb(0,75,34)" stroke="rgb(0,75,34)" stroke-width="1" opacity="1" d="M 1156.5 567 L 1159 567.5 L 1156.5 568 L 1156.5 567 Z " /><path fill="rgb(0,75,34)" stroke="rgb(0,75,34)" stroke-width="1" opacity="1" d="M 1128.5 576 L 1129 579 Q 1126.3 577.9 1127 580.5 L 1125 581.5 L 1128.5 576 Z " /><path fill="rgb(0,75,34)" stroke="rgb(0,75,34)" stroke-width="1" opacity="1" d="M 1122 582 Q 1125 581 1124 584 Q 1121 585 1122 582 Z " /><path fill="rgb(0,75,34)" stroke="rgb(0,75,34)" stroke-width="1" opacity="1" d="M 1117.5 604 L 1118 606.5 L 1117 606.5 L 1117.5 604 Z " /><path fill="rgb(0,75,34)" stroke="rgb(0,75,34)" stroke-width="1" opacity="1" d="M 1114.5 608 L 1115 617.5 L 1113 616.5 L 1114.5 608 Z " /><path fill="rgb(0,75,34)" stroke="rgb(0,75,34)" stroke-width="1" opacity="1" d="M 403.5 642 L 416 642.5 L 403.5 643 L 403.5 642 Z " /><path fill="rgb(0,75,34)" stroke="rgb(0,75,34)" stroke-width="1" opacity="1" d="M 314.5 644 L 317 644.5 L 314 645 L 313.5 647 L 313 645.5 L 314.5 644 Z " /><path fill="rgb(0,75,34)" stroke="rgb(0,75,34)" stroke-width="1" opacity="1" d="M 521.5 644 L 524 644.5 L 521.5 645 L 521.5 644 Z " /><path fill="rgb(0,75,34)" stroke="rgb(0,75,34)" stroke-width="1" opacity="1" d="M 498.5 650 L 501 650.5 L 498.5 651 L 498.5 650 Z " /><path fill="rgb(0,75,34)" stroke="rgb(0,75,34)" stroke-width="1" opacity="1" d="M 422 651 Q 426.1 649.3 425 653.5 Q 423.5 656.5 422 653.5 L 422 651 Z " /><path fill="rgb(0,75,34)" stroke="rgb(0,75,34)" stroke-width="1" opacity="1" d="M 787.5 659 L 788 662.5 L 787 662.5 L 787.5 659 Z " /><path fill="rgb(0,75,34)" stroke="rgb(0,75,34)" stroke-width="1" opacity="1" d="M 416.5 661 L 420 663.5 L 417.5 665 L 416.5 661 Z " /><path fill="rgb(0,75,34)" stroke="rgb(0,75,34)" stroke-width="1" opacity="1" d="M 226.5 671 L 228 674.5 L 227 677.5 L 226 682 L 223 680.5 L 220 674 L 222.5 674 L 226.5 671 Z " /><path fill="rgb(0,75,34)" stroke="rgb(0,75,34)" stroke-width="1" opacity="1" d="M 776.5 674 L 775.5 676 L 776.5 674 Z " /><path fill="rgb(0,75,34)" stroke="rgb(0,75,34)" stroke-width="1" opacity="1" d="M 230.5 677 L 233 680.5 L 229 681 L 230.5 677 Z " /><path fill="rgb(0,75,34)" stroke="rgb(0,75,34)" stroke-width="1" opacity="1" d="M 995.5 677 L 998 680.5 L 997 680.5 Q 997.7 677.9 995 679 L 995.5 677 Z " /><path fill="rgb(0,75,34)" stroke="rgb(0,75,34)" stroke-width="1" opacity="1" d="M 231.5 682 L 233 685.5 L 231 684.5 L 231.5 682 Z " /><path fill="rgb(0,75,34)" stroke="rgb(0,75,34)" stroke-width="1" opacity="1" d="M 211.5 683 L 217 685.5 Q 217.8 690.3 214.5 691 L 213 685 Q 209.8 686 211.5 683 Z " /><path fill="rgb(0,75,34)" stroke="rgb(0,75,34)" stroke-width="1" opacity="1" d="M 358.5 683 L 359 684.5 L 356.5 688 L 357 686.5 L 358.5 683 Z " /><path fill="rgb(0,75,34)" stroke="rgb(0,75,34)" stroke-width="1" opacity="1" d="M 759.5 687 Q 763.3 686.3 764 688.5 L 760.5 689 L 759.5 687 Z " /><path fill="rgb(0,75,34)" stroke="rgb(0,75,34)" stroke-width="1" opacity="1" d="M 231 688 Q 234.8 687 236 689.5 L 237 693.5 L 234 695.5 L 237.5 697 L 239 696.5 L 238.5 698 L 224.5 698 L 222 699 Q 220.5 702.7 223.5 702 L 225.5 700 L 239 700 L 243 710.5 L 241.5 710 L 240 710 L 240 714 L 242 714 Q 240.7 718.1 244 717 L 244.5 713 L 247 718 Q 243.7 716.7 245 721.5 L 247 721.5 L 247.5 723 L 249 722.5 L 248 725.5 L 251 727 L 251 730 Q 247.2 728.5 248 731.5 L 251 736.5 L 248.5 738 Q 246.6 734.3 240 736 L 240 741.5 L 242 742 L 242 743.5 L 241 744.5 L 241 752 L 237 750.5 L 238 742 L 235.5 741 L 234.5 743 L 234 741.5 Q 236.5 740 233 738.5 Q 233.6 732.4 230 730.5 L 231 728 L 228 726.5 L 229 724 L 232 722.5 L 232 718 L 228 718 Q 229 715 226 716 L 226 719 Q 228.7 717.9 228 720.5 Q 230.3 721.8 227.5 723 L 225.5 722 L 224 722.5 L 225 721.5 L 225 715 L 223 714.5 L 224 713.5 L 221 710.5 L 223.5 708 Q 226.1 708.8 225 705.5 L 222 704 Q 223.3 707 219.5 706 L 220 704.5 L 217 696 L 220 696 Q 218.9 693.3 221.5 694 L 223.5 695 L 225.5 694 Q 226.6 696.8 230 696 Q 228.9 693.3 231.5 694 L 234 695 Q 235 691.2 232.5 690 Q 229.9 690.7 231 688 Z M 238 719 L 238 722 Q 242 723 241 721 L 238 719 Z " /><path fill="rgb(0,75,34)" stroke="rgb(0,75,34)" stroke-width="1" opacity="1" d="M 529.5 689 L 545 689.5 Q 541.3 691.3 544.5 693 Q 545.5 690 550.5 691 L 552.5 691 L 555 693.5 L 552 694 L 553.5 697 Q 557.7 695.9 556 700 L 560 700 L 560.5 695 L 565.5 698 L 568 696.5 L 567 701 L 572 702 Q 570.3 706.1 574.5 705 L 580.5 713 L 583 713 L 583 717 L 584.5 717 L 582.5 720 L 560 720.5 L 563.5 722 L 587 722.5 L 529.5 723 L 529.5 722 L 548.5 722 L 552 720.5 L 524.5 719 L 523 721.5 L 523.5 723 L 522 723.5 L 522.5 725 L 517.5 724 L 514.5 725 Q 513.3 722.7 512 725.5 L 512.5 727 L 509.5 727 L 505.5 731 L 504 730.5 Q 504.7 733.1 502 732 Q 500.9 729.3 503.5 730 L 507 728.5 L 500 727 Q 499.2 731.5 502 733.5 L 499 735.5 L 497.5 738 L 492 741.5 Q 493.2 746.1 488 744 L 488 747 L 490.5 746 L 491 749 Q 488 747.8 489 751.5 Q 486.3 752.6 487 756 L 484 756 Q 486.1 750.8 481.5 752 L 479 753.5 L 480 742.5 L 479 737.5 L 480 737.5 Q 478.6 742.1 484.5 740 L 488.5 742 L 493 738.5 L 494 735 L 500 733.5 Q 498.8 731 495 732 Q 493.9 728.7 498 730 L 498 727 L 496 726.5 L 496 712.5 L 497 710.5 Q 491.7 708.2 495.5 706 L 500 705 L 501.5 701 L 503.5 705 Q 506 703.8 505 700 L 503 699.5 L 505 699 Q 503.7 695.7 508.5 697 L 508.5 698 Q 504.8 697 506 700 L 515.5 700 L 516 697.5 L 517.5 696 L 528 696 Q 529.4 692.3 523.5 694 L 519 691.5 Q 526 692 529.5 689 Z M 547 692 L 545 694 Q 534 693 528 696 L 529 698 L 546 698 L 550 693 L 547 692 Z M 567 702 L 567 704 Q 569 707 570 704 Q 571 701 567 702 Z M 512 719 L 510 721 L 512 723 L 518 723 L 517 721 Q 516 718 512 719 Z " /><path fill="rgb(0,75,34)" stroke="rgb(0,75,34)" stroke-width="1" opacity="1" d="M 725.5 689 L 729 689.5 Q 726.7 690.8 728 695.5 Q 730.3 696.8 727.5 698 Q 725.4 694.1 720 695 L 720 710.5 L 718 714 Q 722.1 712.7 721 716 L 716 716 L 716 710.5 L 714.5 710 Q 712.8 713.8 711 710.5 Q 710 705 713.5 704 Q 718.1 705.2 716 700 Q 712.2 698.5 713 701.5 L 711 700.5 L 713 700 Q 711.3 695.5 716.5 697 L 718 695.5 L 716.5 693 L 720 694 Q 718.3 689.9 722.5 691 L 725.5 689 Z " /><path fill="rgb(0,75,34)" stroke="rgb(0,75,34)" stroke-width="1" opacity="1" d="M 512.5 695 L 514 695.5 L 511.5 697 L 512.5 695 Z " /><path fill="rgb(0,75,34)" stroke="rgb(0,75,34)" stroke-width="1" opacity="1" d="M 1314 695 L 1316 695.5 L 1314 696.5 L 1314 695 Z " /><path fill="rgb(0,75,34)" stroke="rgb(0,75,34)" stroke-width="1" opacity="1" d="M 708.5 704 L 709 707.5 L 708 707.5 L 708.5 704 Z " /><path fill="rgb(0,75,34)" stroke="rgb(0,75,34)" stroke-width="1" opacity="1" d="M 879.5 707 L 880 709 L 878 708.5 L 879.5 707 Z " /><path fill="rgb(0,75,34)" stroke="rgb(0,75,34)" stroke-width="1" opacity="1" d="M 326.5 711 Q 329.1 710.2 328 713.5 L 325 715.5 Q 324.3 711.8 326.5 711 Z " /><path fill="rgb(0,75,34)" stroke="rgb(0,75,34)" stroke-width="1" opacity="1" d="M 971.5 714 L 970.5 716 L 971.5 714 Z " /><path fill="rgb(0,75,34)" stroke="rgb(0,75,34)" stroke-width="1" opacity="1" d="M 487.5 717 L 489 717.5 L 486 719.5 L 489 720 L 487.5 723 Q 483.3 724.3 485 719.5 L 487.5 717 Z " /><path fill="rgb(0,75,34)" stroke="rgb(0,75,34)" stroke-width="1" opacity="1" d="M 1014.5 717 L 1015.5 719 L 1017 718.5 Q 1017.9 721.5 1013.5 720 L 1014 718.5 L 1014.5 717 Z " /><path fill="rgb(0,75,34)" stroke="rgb(0,75,34)" stroke-width="1" opacity="1" d="M 1239.5 722 L 1240 727.5 L 1237 725.5 L 1239.5 722 Z " /><path fill="rgb(0,75,34)" stroke="rgb(0,75,34)" stroke-width="1" opacity="1" d="M 865.5 726 L 866 728.5 L 865 728.5 L 865.5 726 Z " /><path fill="rgb(0,75,34)" stroke="rgb(0,75,34)" stroke-width="1" opacity="1" d="M 763.5 733 Q 767.3 732 766 735 L 763.5 734 L 762 734.5 L 763.5 733 Z " /><path fill="rgb(0,75,34)" stroke="rgb(0,75,34)" stroke-width="1" opacity="1" d="M 487 735 Q 492.2 732.9 491 737.5 L 487 739 L 487 735 Z " /><path fill="rgb(0,75,34)" stroke="rgb(0,75,34)" stroke-width="1" opacity="1" d="M 248 740 L 255 740 L 255 742.5 Q 257.8 743.6 257 747 L 255 747.5 L 256 748.5 L 256 758.5 L 255 762 Q 247.8 760.5 245 764.5 Q 246.8 768.8 248.5 766 Q 251.5 765.1 250 769.5 Q 248.5 772.5 247 769.5 L 247 768 L 243 768 L 243 764.5 L 241 760 Q 243.7 761.1 243 758.5 L 244 757.5 L 244 744 Q 250 746 248 740 Z " /><path fill="rgb(0,75,34)" stroke="rgb(0,75,34)" stroke-width="1" opacity="1" d="M 860.5 743 L 861 749.5 L 860 749.5 L 860.5 743 Z " /><path fill="rgb(0,75,34)" stroke="rgb(0,75,34)" stroke-width="1" opacity="1" d="M 485.5 757 Q 487.8 757.8 487 761.5 L 484 766.5 L 486 766.5 L 484.5 769 L 483 765.5 Q 485.5 764 484 758.5 L 485.5 757 Z " /><path fill="rgb(0,75,34)" stroke="rgb(0,75,34)" stroke-width="1" opacity="1" d="M 1235.5 757 L 1236 759.5 L 1235 759.5 L 1235.5 757 Z " /><path fill="rgb(0,75,34)" stroke="rgb(0,75,34)" stroke-width="1" opacity="1" d="M 252.5 764 L 254 766.5 L 253 766.5 L 252.5 764 Z " /><path fill="rgb(0,75,34)" stroke="rgb(0,75,34)" stroke-width="1" opacity="1" d="M 486 770 Q 489 768.8 488 772.5 L 486 771.5 L 486 770 Z " /><path fill="rgb(0,75,34)" stroke="rgb(0,75,34)" stroke-width="1" opacity="1" d="M 248 774 L 250 774.5 L 248.5 777 L 248 774 Z " /><path fill="rgb(0,75,34)" stroke="rgb(0,75,34)" stroke-width="1" opacity="1" d="M 369 785 L 372 785.5 L 369 787 L 369 785 Z " /><path fill="rgb(0,75,34)" stroke="rgb(0,75,34)" stroke-width="1" opacity="1" d="M 536.5 801 L 570.5 802 L 573.5 801 L 576 802.5 L 534.5 803 L 534.5 802 L 536.5 801 Z " /><path fill="rgb(0,75,34)" stroke="rgb(0,75,34)" stroke-width="1" opacity="1" d="M 997.5 812 L 1001 814.5 L 999.5 817 L 996.5 816 Q 995.3 818.3 994 815.5 L 997.5 812 Z " /><path fill="rgb(0,75,34)" stroke="rgb(0,75,34)" stroke-width="1" opacity="1" d="M 847.5 816 L 846.5 818 L 847.5 816 Z " /><path fill="rgb(0,75,34)" stroke="rgb(0,75,34)" stroke-width="1" opacity="1" d="M 609.5 817 L 611 819.5 L 609 818.5 L 609.5 817 Z " /><path fill="rgb(0,75,34)" stroke="rgb(0,75,34)" stroke-width="1" opacity="1" d="M 1219.5 817 L 1220.5 819 L 1219.5 817 Z " /><path fill="rgb(0,75,34)" stroke="rgb(0,75,34)" stroke-width="1" opacity="1" d="M 466.5 818 L 468.5 821 L 466.5 818 Z " /><path fill="rgb(0,75,34)" stroke="rgb(0,75,34)" stroke-width="1" opacity="1" d="M 778.5 818 L 779.5 820 L 778.5 818 Z " /><path fill="rgb(0,75,34)" stroke="rgb(0,75,34)" stroke-width="1" opacity="1" d="M 357.5 819 L 359.5 823 Q 362.5 822.2 361 826 L 356 827 L 355 823.5 L 357 823.5 L 357.5 819 Z " /><path fill="rgb(0,75,34)" stroke="rgb(0,75,34)" stroke-width="1" opacity="1" d="M 286.5 821 L 287 827.5 L 288.5 829 L 291 829.5 Q 288.5 831 292 832.5 L 290.5 835 L 287 834 L 287 832 L 281.5 832 L 281 830.5 Q 282.2 827.3 286 828 L 285 822.5 L 286.5 821 Z " /><path fill="rgb(0,75,34)" stroke="rgb(0,75,34)" stroke-width="1" opacity="1" d="M 988 821 L 991 822.5 L 989.5 825 L 988 825 L 988 821 Z " /><path fill="rgb(0,75,34)" stroke="rgb(0,75,34)" stroke-width="1" opacity="1" d="M 283.5 823 L 284 824.5 L 281 826.5 L 283.5 823 Z " /><path fill="rgb(0,75,34)" stroke="rgb(0,75,34)" stroke-width="1" opacity="1" d="M 1353 825 L 1355 825 L 1357 829 L 1355 829 L 1353 825 Z " /><path fill="rgb(0,75,34)" stroke="rgb(0,75,34)" stroke-width="1" opacity="1" d="M 1155.5 827 L 1156 828.5 L 1154 829.5 L 1155.5 827 Z " /><path fill="rgb(0,75,34)" stroke="rgb(0,75,34)" stroke-width="1" opacity="1" d="M 353 828 Q 356.3 826.7 355 831.5 L 352.5 833 Q 349.3 831.3 353 829.5 L 353 828 Z " /><path fill="rgb(0,75,34)" stroke="rgb(0,75,34)" stroke-width="1" opacity="1" d="M 293 836 L 296 837.5 L 296.5 839 Q 297.8 836.8 299 839.5 L 294 841 L 293 836 Z " /><path fill="rgb(0,75,34)" stroke="rgb(0,75,34)" stroke-width="1" opacity="1" d="M 491.5 836 L 490.5 838 L 491.5 836 Z " /><path fill="rgb(0,75,34)" stroke="rgb(0,75,34)" stroke-width="1" opacity="1" d="M 1334.5 837 L 1335 839 L 1333 838.5 L 1334.5 837 Z " /><path fill="rgb(0,75,34)" stroke="rgb(0,75,34)" stroke-width="1" opacity="1" d="M 958.5 839 L 961 839.5 L 958.5 840 L 958.5 839 Z " /><path fill="rgb(0,75,34)" stroke="rgb(0,75,34)" stroke-width="1" opacity="1" d="M 269 841 L 271 841.5 L 267 844 L 267.5 842 L 269 842.5 L 269 841 Z " /><path fill="rgb(0,75,34)" stroke="rgb(0,75,34)" stroke-width="1" opacity="1" d="M 302.5 841 L 301.5 843 L 302.5 841 Z " /><path fill="rgb(0,75,34)" stroke="rgb(0,75,34)" stroke-width="1" opacity="1" d="M 1325.5 841 Q 1329.9 839.5 1329 842.5 L 1328.5 844 Q 1331.1 843.3 1330 846 Q 1326.6 846.8 1325.5 844 L 1320 843.5 L 1325.5 841 Z " /><path fill="rgb(0,75,34)" stroke="rgb(0,75,34)" stroke-width="1" opacity="1" d="M 667.5 846 L 672 846.5 L 667.5 847 L 667.5 846 Z " /><path fill="rgb(0,75,34)" stroke="rgb(0,75,34)" stroke-width="1" opacity="1" d="M 920.5 846 L 924 846.5 L 920.5 847 L 920.5 846 Z " /></svg>